<svg width="24" height="24" viewBox="0 0 24 24" fill="none" xmlns="http://www.w3.org/2000/svg">
<path d="M22 7.70002C22 7.10002 21.6 6.50002 21.2 6.20002L14.9 2.30002C14.6409 2.15275 14.348 2.07532 14.05 2.07532C13.752 2.07532 13.4591 2.15275 13.2 2.30002L2.9 8.30002C2.4 8.50002 2 9.10002 2 9.70002V16.3C2 16.8 2.4 17.5 2.8 17.8L9.1 21.7C9.35908 21.8473 9.65198 21.9247 9.95 21.9247C10.248 21.9247 10.5409 21.8473 10.8 21.7L21.1 15.7C21.6 15.4 22 14.7 22 14.2V7.70002Z" stroke="#494594" stroke-width="2" stroke-linecap="round" stroke-linejoin="round"/>
<path d="M9.99961 21.9V14L2.09961 9.09998" stroke="#494594" stroke-width="2" stroke-linecap="round" stroke-linejoin="round"/>
<path d="M10 14L21.9 7.09998" stroke="#494594" stroke-width="2" stroke-linecap="round" stroke-linejoin="round"/>
<path d="M14 19.8V11.7" stroke="#494594" stroke-width="2" stroke-linecap="round" stroke-linejoin="round"/>
<path d="M18 17.5V9.40002" stroke="#494594" stroke-width="2" stroke-linecap="round" stroke-linejoin="round"/>
</svg>
