<svg width="19" height="19" viewBox="0 0 19 19" fill="none" xmlns="http://www.w3.org/2000/svg">
<g clip-path="url(#clip0_486_662)">
<path d="M11.6375 4.98753C11.4925 5.13552 11.4112 5.33448 11.4112 5.5417C11.4112 5.74892 11.4925 5.94788 11.6375 6.09587L12.9042 7.36253C13.0522 7.50759 13.2512 7.58884 13.4584 7.58884C13.6656 7.58884 13.8646 7.50759 14.0125 7.36253L16.4715 4.90441C16.7248 4.64949 17.1547 4.73024 17.2497 5.07699C17.4889 5.94693 17.4753 6.867 17.2107 7.72954C16.9461 8.59208 16.4412 9.36142 15.7553 9.94751C15.0694 10.5336 14.2307 10.9122 13.3375 11.0391C12.4442 11.1659 11.5333 11.0358 10.7113 10.6638L4.44921 16.9259C4.13427 17.2407 3.70715 17.4175 3.26183 17.4175C2.8165 17.4174 2.38945 17.2404 2.07461 16.9255C1.75977 16.6105 1.58293 16.1834 1.58301 15.7381C1.58308 15.2928 1.76006 14.8657 2.075 14.5509L8.33709 8.28878C7.96512 7.46681 7.83494 6.55589 7.96178 5.66263C8.08863 4.76936 8.46726 3.9307 9.05336 3.24477C9.63945 2.55884 10.4088 2.05402 11.2713 1.78938C12.1339 1.52474 13.0539 1.51122 13.9239 1.75041C14.2706 1.84541 14.3514 2.27449 14.0973 2.52941L11.6375 4.98753Z" stroke="white" stroke-width="1.5" stroke-linecap="round" stroke-linejoin="round"/>
</g>
<defs>
<clipPath id="clip0_486_662">
<rect width="19" height="19" fill="white"/>
</clipPath>
</defs>
</svg>
