<svg width="22" height="22" viewBox="0 0 22 22" fill="none" xmlns="http://www.w3.org/2000/svg">
<g clip-path="url(#clip0_693_226)">
<path d="M1.83301 11H4.58301" stroke="#3E41C0" stroke-width="2" stroke-linecap="round" stroke-linejoin="round"/>
<path d="M17.417 11H20.167" stroke="#3E41C0" stroke-width="2" stroke-linecap="round" stroke-linejoin="round"/>
<path d="M11 1.83337V4.58337" stroke="#3E41C0" stroke-width="2" stroke-linecap="round" stroke-linejoin="round"/>
<path d="M11 17.4166V20.1666" stroke="#3E41C0" stroke-width="2" stroke-linecap="round" stroke-linejoin="round"/>
<path d="M10.9997 17.4167C14.5435 17.4167 17.4163 14.5439 17.4163 11C17.4163 7.45621 14.5435 4.58337 10.9997 4.58337C7.45585 4.58337 4.58301 7.45621 4.58301 11C4.58301 14.5439 7.45585 17.4167 10.9997 17.4167Z" stroke="#3E41C0" stroke-width="2" stroke-linecap="round" stroke-linejoin="round"/>
<path d="M11 13.75C12.5188 13.75 13.75 12.5188 13.75 11C13.75 9.48122 12.5188 8.25 11 8.25C9.48122 8.25 8.25 9.48122 8.25 11C8.25 12.5188 9.48122 13.75 11 13.75Z" stroke="#3E41C0" stroke-width="2" stroke-linecap="round" stroke-linejoin="round"/>
</g>
<defs>
<clipPath id="clip0_693_226">
<rect width="22" height="22" fill="white"/>
</clipPath>
</defs>
</svg>
