<svg width="777" height="700" viewBox="0 0 777 700" fill="none" xmlns="http://www.w3.org/2000/svg">
<circle cx="406" cy="350" r="350" fill="#9F9CE8"/>
<path d="M396.635 682.476C578.444 682.476 725.829 534.4 725.829 351.738C725.829 169.076 578.444 21 396.635 21C214.826 21 67.4407 169.076 67.4407 351.738C67.4407 534.4 214.826 682.476 396.635 682.476Z" fill="#E0D9FF"/>
<mask id="mask0_975_55" style="mask-type:luminance" maskUnits="userSpaceOnUse" x="67" y="21" width="659" height="662">
<path d="M396.635 682.476C578.444 682.476 725.829 534.4 725.829 351.738C725.829 169.076 578.444 21 396.635 21C214.826 21 67.4407 169.076 67.4407 351.738C67.4407 534.4 214.826 682.476 396.635 682.476Z" fill="white"/>
</mask>
<g mask="url(#mask0_975_55)">
<path d="M46.5664 265.866H306.511C300.436 255.21 287.174 249.803 276.127 255.058C275.885 232.464 258.617 211.19 236.637 206.405C214.657 201.621 190.174 213.806 180.645 234.273C186.677 211.068 167.023 186.502 143.563 182.069C120.102 177.636 95.8914 189.543 79.6623 207.132C63.4336 224.721 55.1887 243.501 46.5664 265.866Z" fill="white"/>
</g>
<mask id="mask1_975_55" style="mask-type:luminance" maskUnits="userSpaceOnUse" x="67" y="21" width="659" height="662">
<path d="M396.635 682.476C578.444 682.476 725.829 534.4 725.829 351.738C725.829 169.076 578.444 21 396.635 21C214.826 21 67.4407 169.076 67.4407 351.738C67.4407 534.4 214.826 682.476 396.635 682.476Z" fill="white"/>
</mask>
<g mask="url(#mask1_975_55)">
<path d="M746.656 324.089H614.518C621.085 317.266 631.112 314.087 640.159 316.819C640.504 308.154 645.99 299.015 654.12 296.102C662.251 293.19 672.027 295.715 677.751 302.206C674.463 292.39 678.551 281.082 686.119 274.049C693.687 267.017 704.133 263.795 714.417 263.069C721.017 262.603 727.889 263.136 733.771 266.18C743.023 270.967 748.375 281.332 749.837 291.684C751.3 302.037 748.49 313.796 746.656 324.089Z" fill="white"/>
</g>
<mask id="mask2_975_55" style="mask-type:luminance" maskUnits="userSpaceOnUse" x="67" y="21" width="659" height="662">
<path d="M396.635 682.476C578.444 682.476 725.829 534.4 725.829 351.738C725.829 169.076 578.444 21 396.635 21C214.826 21 67.4407 169.076 67.4407 351.738C67.4407 534.4 214.826 682.476 396.635 682.476Z" fill="white"/>
</mask>
<g mask="url(#mask2_975_55)">
<path d="M196.301 239.962C218.657 239.962 236.779 221.755 236.779 199.294C236.779 176.834 218.657 158.627 196.301 158.627C173.946 158.627 155.823 176.834 155.823 199.294C155.823 221.755 173.946 239.962 196.301 239.962Z" fill="#FFD869"/>
</g>
<path d="M612.617 470.07C612.617 470.07 592.877 484.853 590.676 485.947C588.475 487.04 525.867 508.386 525.867 508.386L534.113 496.41L584.829 465.554L593.54 455.66L612.617 470.07Z" fill="#F9724D"/>
<mask id="mask3_975_55" style="mask-type:luminance" maskUnits="userSpaceOnUse" x="525" y="455" width="88" height="54">
<path d="M612.617 470.07C612.617 470.07 592.877 484.853 590.676 485.947C588.475 487.04 525.867 508.386 525.867 508.386L534.113 496.41L584.829 465.554L593.54 455.66L612.617 470.07Z" fill="white"/>
</mask>
<g mask="url(#mask3_975_55)">
<path d="M589.837 456.529C590.131 456.726 598.854 472.973 607.772 478.389L616.397 470.413L594.835 452.295L589.837 456.529Z" fill="#494594"/>
</g>
<path d="M468.334 620.883L462.822 628.011L445.073 627.297C442.598 627.198 440.201 628.178 438.5 629.986L438.359 630.135C438.359 630.135 465.885 641.958 466.992 641.489C467.546 641.255 469.386 637.39 472.447 633.847C475.507 630.304 479.787 627.083 479.787 627.083L468.334 620.883Z" fill="#F9724D"/>
<path d="M452.348 627.083C452.348 627.083 448.078 636.977 445.74 638.883L453.185 641.092C453.185 641.092 458.327 632.606 458.667 627.844L452.348 627.083Z" fill="#19283F"/>
<path d="M625.006 411.699L596.899 446.286L625.006 464.225V411.699Z" fill="#6B51B4"/>
<path d="M670.356 496.737C670.356 496.737 675.961 455.255 684.655 426.31C684.655 426.31 686.851 402.02 668.409 396.969C649.966 391.917 624.659 404.629 622.129 418.068C619.598 431.508 617.283 488.66 617.283 488.66L670.356 496.737Z" fill="#9F9CE8"/>
<mask id="mask4_975_55" style="mask-type:luminance" maskUnits="userSpaceOnUse" x="617" y="395" width="68" height="102">
<path d="M670.356 496.737C670.356 496.737 675.961 455.255 684.655 426.31C684.655 426.31 686.851 402.02 668.409 396.969C649.966 391.917 624.659 404.629 622.129 418.068C619.598 431.508 617.283 488.66 617.283 488.66L670.356 496.737Z" fill="white"/>
</mask>
<g mask="url(#mask4_975_55)">
<path d="M638.593 486.559C638.593 486.559 642.85 488.072 654.608 481.363C666.365 474.655 683.057 463.28 683.057 463.28L684.655 426.311L652.576 447.822L638.593 486.559Z" fill="#9F9CE8"/>
</g>
<path d="M617.283 488.66C617.283 488.66 539.778 514.073 534.647 519.624C529.516 525.175 468.333 620.883 468.333 620.883L479.787 627.083C479.787 627.083 536.62 591.792 552.407 544.605L630.158 517.641L617.283 488.66Z" fill="#6B51B4"/>
<mask id="mask5_975_55" style="mask-type:luminance" maskUnits="userSpaceOnUse" x="468" y="488" width="163" height="140">
<path d="M617.283 488.66C617.283 488.66 539.778 514.073 534.647 519.624C529.516 525.175 468.333 620.883 468.333 620.883L479.787 627.083C479.787 627.083 536.62 591.792 552.407 544.605L630.158 517.641L617.283 488.66Z" fill="white"/>
</mask>
<g mask="url(#mask5_975_55)">
<path d="M474.109 625.429C473.802 625.429 473.495 625.329 473.236 625.125C472.622 624.64 472.517 623.747 472.999 623.131C475.444 620.014 532.931 546.704 539.86 540.475C540.442 539.952 541.335 540.002 541.855 540.586C542.376 541.17 542.326 542.067 541.745 542.59C534.997 548.656 475.817 624.126 475.22 624.887C474.94 625.243 474.526 625.429 474.109 625.429Z" fill="#9F9CE8"/>
</g>
<path d="M670.356 496.737C669.978 509.706 667.31 524.281 658.146 530.708C645.136 539.833 567.889 551.427 567.889 551.427C573.435 585.187 530.496 642.034 530.496 642.034L518.309 640.522C518.309 640.522 538.854 546.123 541.054 535.515C543.253 524.908 617.282 488.66 617.282 488.66C617.282 488.66 617.282 488.66 617.738 487.393L670.356 496.737Z" fill="#6B51B4"/>
<mask id="mask6_975_55" style="mask-type:luminance" maskUnits="userSpaceOnUse" x="518" y="487" width="153" height="156">
<path d="M670.356 496.737C669.978 509.706 667.31 524.281 658.146 530.708C645.136 539.833 567.889 551.427 567.889 551.427C573.435 585.187 530.496 642.034 530.496 642.034L518.309 640.522C518.309 640.522 538.854 546.123 541.054 535.515C543.253 524.908 617.282 488.66 617.282 488.66C617.282 488.66 617.282 488.66 617.738 487.393L670.356 496.737Z" fill="white"/>
</mask>
<g mask="url(#mask6_975_55)">
<path opacity="0.38" d="M617.283 488.661C617.283 488.661 645.523 521.651 670.356 521.651C695.189 521.651 672.722 521.927 672.722 521.927C672.722 521.927 676.237 497.889 671.055 491.878L615.735 482.023L617.283 488.661Z" fill="#19283F"/>
</g>
<path opacity="0.38" d="M529.674 584.378C529.674 584.378 538.762 539.117 541.054 535.515C543.347 531.913 602.571 497.024 602.571 497.024C602.571 497.024 539.587 530.048 535.565 534.898C531.543 539.747 519.814 594.236 519.814 594.236C519.814 594.236 527.847 586.215 529.674 584.378Z" fill="#19283F"/>
<path d="M377.246 616.759C377.246 616.759 585.402 317.56 561.193 49.7342C561.193 49.7342 88.3206 356.624 75.0269 545.63C75.0269 545.63 368.299 483.386 373.924 573.817L377.246 616.759Z" fill="#FFD869"/>
<mask id="mask7_975_55" style="mask-type:luminance" maskUnits="userSpaceOnUse" x="75" y="49" width="489" height="568">
<path d="M377.246 616.759C377.246 616.759 585.402 317.56 561.193 49.7342C561.193 49.7342 88.3206 356.624 75.0269 545.63C75.0269 545.63 368.299 483.386 373.924 573.817L377.246 616.759Z" fill="white"/>
</mask>
<g mask="url(#mask7_975_55)">
<path d="M83.7473 472.661C83.7473 472.661 256.232 433.295 337.211 472.661C418.191 512.027 442.876 557.699 442.876 557.699L474.934 495.249C474.934 495.249 403.955 426.169 337.212 412.7C270.469 399.231 135.746 411.368 135.746 411.368L83.7473 472.661Z" fill="white"/>
</g>
<mask id="mask8_975_55" style="mask-type:luminance" maskUnits="userSpaceOnUse" x="75" y="49" width="489" height="568">
<path d="M377.246 616.759C377.246 616.759 585.402 317.56 561.193 49.7342C561.193 49.7342 88.3206 356.624 75.0269 545.63C75.0269 545.63 368.299 483.386 373.924 573.817L377.246 616.759Z" fill="white"/>
</mask>
<g mask="url(#mask8_975_55)">
<path d="M479.787 434.341C479.787 434.341 402.496 374.271 360.827 369.861C319.158 365.451 176.727 357.54 176.727 357.54L210.819 307.603C210.819 307.603 359.66 304.558 423.882 329.677C488.105 354.795 518.074 389.329 518.074 389.329L479.787 434.341Z" fill="white"/>
</g>
<mask id="mask9_975_55" style="mask-type:luminance" maskUnits="userSpaceOnUse" x="75" y="49" width="489" height="568">
<path d="M377.246 616.759C377.246 616.759 585.402 317.56 561.193 49.7342C561.193 49.7342 88.3206 356.624 75.0269 545.63C75.0269 545.63 368.299 483.386 373.924 573.817L377.246 616.759Z" fill="white"/>
</mask>
<g mask="url(#mask9_975_55)">
<path d="M528.896 301.229C528.896 301.229 481.796 276.566 442.656 268.236C403.517 259.906 289.067 255.926 289.067 255.926L332.534 212.585C332.534 212.585 421.428 207.253 477.816 223.249C534.204 239.245 558.749 255.926 558.749 255.926L528.896 301.229Z" fill="white"/>
</g>
<mask id="mask10_975_55" style="mask-type:luminance" maskUnits="userSpaceOnUse" x="75" y="49" width="489" height="568">
<path d="M377.246 616.759C377.246 616.759 585.402 317.56 561.193 49.7342C561.193 49.7342 88.3206 356.624 75.0269 545.63C75.0269 545.63 368.299 483.386 373.924 573.817L377.246 616.759Z" fill="white"/>
</mask>
<g mask="url(#mask10_975_55)">
<path d="M555.885 184.867C555.885 184.867 517.607 169.074 491.042 167.319C464.477 165.564 378.891 170.244 378.891 170.244L427.215 126.372C427.215 126.372 508.659 119.353 569.243 140.996L555.885 184.867Z" fill="white"/>
</g>
<path d="M374.537 625.204C373.806 625.204 373.066 624.987 372.42 624.535C370.74 623.359 370.327 621.036 371.498 619.348C372.024 618.591 424.648 542.295 473.629 434.367C502.369 371.039 524.249 309.374 538.661 251.082C556.644 178.354 562.982 110.724 557.499 50.0712C557.314 48.022 558.818 46.2096 560.857 46.0235C562.892 45.8394 564.7 47.3476 564.885 49.3968C570.445 110.902 564.037 179.389 545.84 252.956C531.307 311.708 509.263 373.827 480.318 437.587C431.059 546.097 378.111 622.846 377.582 623.609C376.862 624.648 375.709 625.204 374.537 625.204Z" fill="#19283F"/>
<path d="M279.34 601.981C279.34 601.981 303.403 594.237 420.813 631.416C420.813 631.416 470.51 646.469 515.265 659.091C521.342 660.805 525.25 666.923 523.959 673.13C523.111 677.209 520.095 681.064 512.302 682.4L279.34 601.981Z" fill="#6B51B4"/>
<path d="M512.303 682.4C512.303 682.4 331.309 597.18 279.34 601.981C227.372 606.782 213.633 666.796 291.885 682.4H512.303Z" fill="#19283F"/>
<path d="M526.11 641.489L522.987 641.12L523.71 639.901C538.703 614.632 545.994 578.86 550.351 557.486C552.704 545.941 553.802 540.769 555.173 539.152C557.584 536.306 580.824 527.051 613.393 514.288C627.625 508.711 641.074 503.44 643.129 502.221C643.357 501.948 644.293 500.336 645.288 491.685L645.451 490.275L648.257 490.601L648.095 492.011C646.898 502.412 645.697 503.965 644.666 504.605C642.684 505.833 631.881 510.09 614.42 516.933C593.914 524.969 559.593 538.418 557.323 540.993C556.367 542.122 554.789 549.861 553.118 558.056C548.726 579.605 541.348 615.808 526.11 641.489Z" fill="#9F9CE8"/>
<path d="M579.471 445.158C596.052 457.08 632.79 486.837 638.593 486.558C646.154 486.195 665.188 456.818 665.188 456.818L637.627 442.555L631.465 454.292C631.465 454.292 613.799 441.796 582.09 434.34L579.471 445.158Z" fill="#F9724D"/>
<mask id="mask11_975_55" style="mask-type:luminance" maskUnits="userSpaceOnUse" x="579" y="434" width="87" height="53">
<path d="M579.471 445.158C596.052 457.08 632.79 486.837 638.593 486.558C646.154 486.195 665.188 456.818 665.188 456.818L637.627 442.555L631.465 454.292C631.465 454.292 613.799 441.796 582.09 434.34L579.471 445.158Z" fill="white"/>
</mask>
<g mask="url(#mask11_975_55)">
<path d="M632.869 443.624L660.718 470.076L670.356 456.058L636.155 436.841L632.869 443.624Z" fill="#494594"/>
</g>
<path d="M636.156 442.096L667 458.058L681.342 434.862C688.644 423.053 685.551 407.409 674.068 399.651C673.862 399.512 673.653 399.375 673.443 399.241C667.448 395.43 659.578 397.256 655.644 403.043C655.302 403.547 655.01 404.084 654.739 404.63L636.156 442.096Z" fill="#6B51B4"/>
<mask id="mask12_975_55" style="mask-type:luminance" maskUnits="userSpaceOnUse" x="636" y="397" width="50" height="62">
<path d="M636.156 442.096L667 458.058L681.342 434.862C688.644 423.053 685.551 407.409 674.068 399.651C673.862 399.512 673.653 399.375 673.443 399.241C667.448 395.43 659.578 397.256 655.644 403.043C655.302 403.547 655.01 404.084 654.739 404.63L636.156 442.096Z" fill="white"/>
</mask>
<g mask="url(#mask12_975_55)">
<path d="M650.072 453.199C649.814 453.199 649.555 453.129 649.322 452.981C648.661 452.564 648.461 451.689 648.876 451.025C649.021 450.794 663.324 427.908 667.3 420.917C674.393 408.445 675.493 398.277 675.503 398.176C675.582 397.396 676.273 396.831 677.051 396.907C677.826 396.986 678.392 397.68 678.314 398.46C678.271 398.896 677.166 409.293 669.753 422.325C665.748 429.367 651.413 452.304 651.269 452.535C651.001 452.964 650.541 453.199 650.072 453.199Z" fill="#9F9CE8"/>
</g>
<path d="M646.787 354.185C646.787 354.185 659.495 355.799 658.261 367.837C657.027 379.875 654.528 383.744 654.528 383.744L646.491 361.016C645.703 358.787 645.809 356.337 646.787 354.185Z" fill="#19283F"/>
<path d="M652 374.598L657.88 395.871C657.88 395.871 647.226 413.433 640.442 413.561C633.657 413.69 633.539 403.809 633.539 403.809C633.539 403.809 637.306 400.924 644.538 398.385L645.218 389.628C644.052 390.507 642.766 390.997 641.414 390.997C636.115 390.997 631.819 383.507 631.819 374.268C631.819 365.03 636.115 357.54 641.414 357.54C645.593 357.54 649.144 362.2 650.46 368.7L652 374.598Z" fill="#F9724D"/>
<path d="M636.824 364.309C636.824 364.309 632.847 365.47 631.982 371.182C631.982 371.182 628.116 367.091 629.179 361.437C630.242 355.783 636.496 353.395 638.685 356.536L636.824 364.309Z" fill="#19283F"/>
<path d="M645.218 389.628C645.218 389.628 647.716 387.596 648.468 384.284C648.468 384.284 650.163 391.677 644.849 394.375L645.218 389.628Z" fill="#EF92C8"/>
<path d="M645.218 389.983C645.117 389.983 645.016 389.939 644.946 389.855C644.821 389.704 644.842 389.48 644.992 389.355C645.022 389.331 647.944 386.852 648.72 382.865C648.757 382.673 648.944 382.545 649.134 382.585C649.325 382.623 649.45 382.809 649.412 383.001C648.587 387.245 645.57 389.795 645.442 389.902C645.377 389.956 645.297 389.983 645.218 389.983Z" fill="#19283F"/>
<path d="M636.462 383.116C635.945 383.116 635.416 382.997 634.893 382.757C634.53 382.591 634.254 382.277 634.137 381.895C634.022 381.519 634.072 381.113 634.273 380.779C635.686 378.438 635.195 373.37 635.19 373.319C635.16 373.026 635.372 372.765 635.663 372.736C635.949 372.703 636.215 372.919 636.244 373.212C636.266 373.434 636.776 378.685 635.179 381.331C635.118 381.432 635.134 381.531 635.15 381.581C635.178 381.673 635.244 381.749 635.332 381.789C636.242 382.205 637.095 382.135 637.87 381.577C638.107 381.407 638.439 381.461 638.609 381.701C638.779 381.94 638.724 382.272 638.486 382.443C637.864 382.89 637.174 383.116 636.462 383.116Z" fill="#19283F"/>
<path d="M640.577 388.412C640.398 388.412 640.245 388.276 640.227 388.093C640.207 387.898 640.348 387.724 640.543 387.705C641.204 387.638 641.66 387.393 641.938 386.955C642.388 386.242 642.274 385.179 642.131 384.504C638.859 388.361 636.732 387.402 636.639 387.358C636.463 387.273 636.389 387.061 636.473 386.884C636.557 386.709 636.764 386.633 636.94 386.715C636.98 386.733 638.907 387.485 642.018 383.524C642.097 383.423 642.226 383.374 642.352 383.394C642.479 383.416 642.585 383.504 642.628 383.626C642.661 383.72 643.421 385.931 642.535 387.334C642.139 387.96 641.492 388.322 640.613 388.41C640.601 388.412 640.589 388.412 640.577 388.412Z" fill="#19283F"/>
<path d="M639.516 373.027C639.62 373.865 639.339 374.59 638.888 374.647C638.436 374.704 637.985 374.071 637.88 373.234C637.776 372.396 638.057 371.671 638.509 371.614C638.96 371.557 639.411 372.19 639.516 373.027Z" fill="#19283F"/>
<path d="M634.657 373.997C634.762 374.835 634.48 375.56 634.029 375.616C633.578 375.674 633.126 375.041 633.022 374.203C632.917 373.366 633.199 372.641 633.65 372.583C634.102 372.527 634.552 373.16 634.657 373.997Z" fill="#19283F"/>
<path d="M635.968 371.003C636.154 370.484 636.559 370.075 637.03 369.789C637.505 369.503 638.065 369.349 638.624 369.33C639.182 369.329 639.734 369.445 640.221 369.677C640.467 369.786 640.687 369.945 640.904 370.095C641.106 370.273 641.299 370.455 641.463 370.669C641.183 370.661 640.938 370.61 640.694 370.573C640.444 370.555 640.214 370.498 639.981 370.479C639.52 370.417 639.081 370.397 638.648 370.393C638.216 370.41 637.791 370.457 637.352 370.557C636.91 370.656 636.465 370.798 635.968 371.003Z" fill="#19283F"/>
<path d="M629.435 371.753C629.621 371.235 630.026 370.825 630.497 370.54C630.972 370.254 631.532 370.1 632.091 370.081C632.649 370.08 633.201 370.196 633.687 370.428C633.934 370.536 634.154 370.696 634.37 370.846C634.572 371.024 634.766 371.205 634.929 371.42C634.65 371.412 634.405 371.361 634.16 371.324C633.911 371.305 633.681 371.249 633.448 371.229C632.986 371.168 632.548 371.148 632.115 371.144C631.683 371.161 631.257 371.208 630.819 371.308C630.377 371.406 629.932 371.548 629.435 371.753Z" fill="#19283F"/>
<path d="M640.385 368.334C643.778 371.295 648.54 374.375 653.46 374.1C653.46 374.1 659.732 360.83 650.276 355.141C640.82 349.453 634.194 358.071 634.194 358.071C635.162 362.049 637.308 365.648 640.385 368.334Z" fill="#19283F"/>
<path d="M449.715 504.543L426.106 484.833L418.422 498.656L442.001 519.003L449.715 504.543Z" fill="#6B51B4"/>
<path d="M500.392 397.861L477.009 381.107L470.198 394.599L493.281 412.678L500.392 397.861Z" fill="#6B51B4"/>
<path d="M545.094 266.267L521.565 255.926L518.075 268.992L541.584 280.547L545.094 266.267Z" fill="#6B51B4"/>
<path d="M565.823 149.61L544.261 143.318L542.554 156.354L564.311 163.07L565.823 149.61Z" fill="#6B51B4"/>
<path d="M440.133 628.018C410.911 628.018 388.111 622.409 387.834 622.339L384.17 621.421L387.86 620.612C388.092 620.561 411.376 615.274 443.749 592.633C462.766 579.334 481.151 562.737 498.395 543.306C519.955 519.009 539.782 490.186 557.323 457.635C565.584 442.305 572.446 424.952 577.877 405.689C578.605 365.867 578.05 319.493 576.216 267.328C572.224 153.8 563.432 50.8373 563.343 49.8105L565.076 49.5039C565.253 50.1677 582.936 116.845 590.958 200.149C595.671 249.088 596.18 294.112 592.468 333.971C590.022 360.234 585.731 384.282 579.639 405.949C579.436 416.948 579.136 427.45 578.738 437.433C576.43 495.265 570.804 535.896 562.014 558.199C553.186 580.597 538.511 597.91 518.394 609.655C502.331 619.033 482.79 624.893 460.315 627.072C453.391 627.743 446.602 628.018 440.133 628.018ZM391.722 621.386C401.274 623.369 429.335 628.298 460.191 625.301C482.401 623.143 501.692 617.358 517.528 608.108C537.282 596.568 551.696 579.557 560.372 557.544C569.088 535.429 574.673 494.994 576.973 437.364C577.291 429.38 577.547 421.068 577.74 412.431C572.588 429.338 566.292 444.717 558.875 458.48C541.253 491.181 521.328 520.139 499.654 544.552C482.305 564.093 463.802 580.783 444.659 594.158C419.306 611.872 399.439 619.043 391.722 621.386ZM565.992 60.5151C568.339 89.9266 574.74 175.112 577.98 267.258C579.709 316.433 580.303 360.467 579.756 398.727C584.861 378.954 588.524 357.277 590.708 333.82C594.41 294.077 593.903 249.171 589.203 200.348C583.06 136.539 571.241 82.5084 565.992 60.5151Z" fill="#19283F"/>
<path d="M584.203 435.162C584.203 435.162 581.331 422.84 581.227 422.821C578.681 422.343 578.079 427.318 576.958 427.753C575.837 428.189 572.253 428.072 571.928 430.449C571.603 432.826 571.869 442.621 574.788 444.949C576.65 446.434 579.931 445.49 579.931 445.49L584.203 435.162Z" fill="#F9724D"/>
<path d="M518.309 640.522L516.359 645.242C515.939 646.257 514.989 646.95 513.898 647.037L497.66 648.328C495.08 648.533 492.777 650.033 491.537 652.315L519.843 661.566L530.496 642.034L518.309 640.522Z" fill="#F9724D"/>
<path d="M498.921 654.728L502.716 647.926C502.716 647.926 505.846 646.516 509.947 647.351L505.913 657.013L498.921 654.728Z" fill="#19283F"/>
<path d="M536.247 496.625C537.255 495.355 536.436 493.465 534.824 493.347C533.597 493.258 532.402 493.218 531.844 493.336C530.459 493.629 526.741 496.171 526.158 497.024C525.575 497.877 525.01 507.861 525.867 508.386C526.484 508.764 532.769 501.006 536.247 496.625Z" fill="#F9724D"/>
<path d="M450.242 97.3792H304.449C308.383 88.6856 317.779 84.2145 327.069 86.2373C329.525 80.0589 332.738 73.7897 337.669 69.3498C342.601 64.9099 349.092 62.0071 355.71 62.22C362.724 62.4459 369.378 66.1854 373.921 71.5592C378.464 76.933 381.016 83.8098 381.978 90.7936C383.657 86.8144 388.234 84.6553 392.535 84.5681C396.836 84.4809 401.073 87.119 402.91 91.0272C403.909 88.9816 406.135 87.5172 408.181 86.5334C414.869 83.317 422.496 81.3388 429.72 83.0169C436.944 84.6955 449.822 89.9415 450.242 97.3792Z" fill="white"/>
<path d="M454.864 97.9879H347.569C347.234 97.9879 346.963 97.7158 346.963 97.3796C346.963 97.0434 347.234 96.7713 347.569 96.7713H454.864C455.198 96.7713 455.47 97.0434 455.47 97.3796C455.47 97.7154 455.198 97.9879 454.864 97.9879Z" fill="#19283F"/>
<path d="M338.721 97.9879H299.559C299.225 97.9879 298.954 97.7158 298.954 97.3796C298.954 97.0434 299.225 96.7713 299.559 96.7713H338.721C339.055 96.7713 339.326 97.0434 339.326 97.3796C339.326 97.7154 339.055 97.9879 338.721 97.9879Z" fill="#19283F"/>
<path d="M24.0955 266.677H1.45573C1.01011 266.677 0.648438 266.314 0.648438 265.866C0.648438 265.418 1.01011 265.055 1.45573 265.055H24.0955C24.5412 265.055 24.9028 265.418 24.9028 265.866C24.9028 266.314 24.5412 266.677 24.0955 266.677Z" fill="#19283F"/>
<path d="M148.935 266.677H34.4972C34.0516 266.677 33.6899 266.314 33.6899 265.866C33.6899 265.418 34.0516 265.055 34.4972 265.055H148.935C149.381 265.055 149.743 265.418 149.743 265.866C149.743 266.314 149.381 266.677 148.935 266.677Z" fill="#19283F"/>
<path d="M263.209 266.677H164.853C164.407 266.677 164.046 266.314 164.046 265.866C164.046 265.418 164.407 265.055 164.853 265.055H263.209C263.654 265.055 264.016 265.418 264.016 265.866C264.016 266.314 263.655 266.677 263.209 266.677Z" fill="#19283F"/>
<path d="M3.44586 263.695C3.29974 263.695 3.15162 263.655 3.01841 263.571C2.6406 263.334 2.52595 262.833 2.76249 262.453C8.19195 253.741 17.2304 247.01 28.2133 243.5C37.3442 240.583 47.8108 239.838 59.3317 241.284C67.1092 215.508 87.9439 194.082 113.86 185.266C114.283 185.124 114.74 185.351 114.883 185.775C115.026 186.199 114.8 186.659 114.378 186.803C88.7302 195.527 68.1558 216.833 60.6839 242.405L60.4894 243.071L59.804 242.981C48.2504 241.45 37.7866 242.144 28.7029 245.046C18.0842 248.44 9.3581 254.927 4.13167 263.314C3.97748 263.56 3.71469 263.695 3.44586 263.695Z" fill="#19283F"/>
<path d="M755.027 324.9H737.465C737.019 324.9 736.657 324.536 736.657 324.089C736.657 323.641 737.019 323.278 737.465 323.278H755.027C755.473 323.278 755.835 323.641 755.835 324.089C755.835 324.536 755.473 324.9 755.027 324.9Z" fill="#19283F"/>
<path d="M775.968 325.007H758.943C758.497 325.007 758.135 324.644 758.135 324.196C758.135 323.748 758.497 323.385 758.943 323.385H774.589C775.726 315.121 773.129 306.007 767.571 298.864C761.955 291.647 752.863 287.744 744.418 288.923L743.279 289.082L743.518 287.951C744.771 282.013 742.191 275.496 736.616 270.518C731.883 266.292 725.059 264.03 717.9 264.312C717.468 264.333 717.079 263.98 717.062 263.533C717.044 263.085 717.391 262.708 717.837 262.691C725.413 262.396 732.647 264.804 737.688 269.305C743.367 274.375 746.153 280.984 745.289 287.19C753.985 286.398 763.121 290.509 768.843 297.865C774.826 305.555 777.532 315.447 776.08 324.327L775.968 325.007Z" fill="#19283F"/>
<path d="M198.176 241.449C176.445 241.449 158.766 223.686 158.766 201.854C158.766 180.021 176.445 162.259 198.176 162.259C219.907 162.259 237.586 180.021 237.586 201.854C237.586 223.686 219.907 241.449 198.176 241.449ZM198.176 163.881C177.336 163.881 160.381 180.916 160.381 201.854C160.381 222.792 177.336 239.827 198.176 239.827C219.017 239.827 235.972 222.793 235.972 201.854C235.972 180.916 219.017 163.881 198.176 163.881Z" fill="#19283F"/>
<path d="M53.8524 696.914H685.291C658.954 685.536 631.308 681.086 602.738 683.467C580.394 685.33 557.965 691.474 535.858 687.715C518.575 684.776 502.899 675.987 486.272 670.412C468.376 664.411 449.244 662.157 430.451 663.834C411.982 665.482 393.776 670.873 375.254 670.018C357.344 669.191 340.225 662.56 323.91 655.091C292.401 640.666 261.985 622.626 228.106 615.439C194.227 608.251 154.72 614.427 132.815 641.37C123.945 652.28 117.618 666.63 104.643 671.97C94.7326 676.049 83.4406 673.68 72.8456 675.255C62.2507 676.829 50.5203 686.687 53.8524 696.914Z" fill="#3E41C0"/>
<path d="M67.4395 671.978C67.0459 671.978 66.7012 671.689 66.6419 671.286C66.5765 670.843 66.8813 670.431 67.3225 670.365C71.3985 669.759 75.6102 669.729 79.683 669.7C86.4937 669.651 92.9262 669.604 98.9321 667.133C108.098 663.36 114.035 654.737 119.777 646.397C122.007 643.159 124.311 639.812 126.785 636.77C137.112 624.067 152.187 615.062 170.379 610.729C186.804 606.817 204.955 606.758 222.867 610.558C226.973 611.429 231.216 612.502 235.477 613.748C235.906 613.874 236.151 614.323 236.027 614.754C235.903 615.184 235.455 615.432 235.026 615.306C230.803 614.071 226.6 613.008 222.534 612.145C205.105 608.448 186.714 608.505 170.751 612.307C152.907 616.558 138.136 625.372 128.035 637.796C125.603 640.787 123.316 644.108 121.105 647.32C115.229 655.854 109.153 664.679 99.544 668.633C93.2495 671.224 86.3585 671.274 79.6942 671.322C75.6771 671.351 71.5228 671.381 67.5586 671.97C67.5186 671.976 67.4791 671.978 67.4395 671.978Z" fill="#19283F"/>
<path d="M659.894 686.403C659.819 686.403 659.743 686.392 659.667 686.37C639.656 680.493 618.706 678.414 597.399 680.189C590.668 680.75 583.807 681.718 577.172 682.654C561.781 684.826 545.865 687.072 530.318 684.428C529.879 684.353 529.583 683.934 529.657 683.493C529.731 683.051 530.15 682.752 530.588 682.828C545.889 685.429 561.678 683.202 576.948 681.048C583.605 680.108 590.489 679.137 597.266 678.572C618.77 676.781 639.918 678.88 660.12 684.813C660.548 684.939 660.794 685.389 660.668 685.819C660.566 686.172 660.243 686.403 659.894 686.403Z" fill="#19283F"/>
</svg>
