<svg width="100" height="100" viewBox="0 0 100 100" fill="none" xmlns="http://www.w3.org/2000/svg">
<circle cx="50" cy="50" r="49.5" fill="#9F9CE8" stroke="#9F9CE8"/>
<path d="M72.5 49.5H66.92C65.9367 49.4984 64.9797 49.7532 64.1955 50.2256C63.4113 50.698 62.843 51.3619 62.5775 52.1159L57.29 67.0942C57.2559 67.1872 57.1849 67.269 57.0875 67.3271C56.9901 67.3853 56.8717 67.4167 56.75 67.4167C56.6283 67.4167 56.5099 67.3853 56.4125 67.3271C56.3151 67.269 56.2441 67.1872 56.21 67.0942L43.79 31.9059C43.7559 31.8128 43.6849 31.7311 43.5875 31.673C43.4901 31.6148 43.3717 31.5834 43.25 31.5834C43.1283 31.5834 43.0099 31.6148 42.9125 31.673C42.8151 31.7311 42.7441 31.8128 42.71 31.9059L37.4225 46.8842C37.158 47.6352 36.5931 48.297 35.8134 48.7691C35.0338 49.2412 34.082 49.4978 33.1025 49.5H27.5" stroke="white" stroke-width="3" stroke-linecap="round" stroke-linejoin="round"/>
</svg>
