<svg width="136" height="45" viewBox="0 0 136 45" fill="none" xmlns="http://www.w3.org/2000/svg">
<g filter="url(#filter0_dddd_45_1053)">
<path d="M21.5809 18.104C22.0129 17.624 28.1089 15.752 31.2769 15.752C32.1409 15.752 32.4769 16.136 32.4769 16.52C32.4769 17.192 30.0289 20.12 28.8289 22.088C28.4929 22.616 28.3489 22.808 27.9649 22.808C27.4849 22.808 24.4609 21.224 20.3809 21.224C20.3809 21.224 17.1169 29.288 16.1569 34.472C16.0129 35.336 15.7729 35.864 15.0049 35.864C12.7969 35.864 9.00488 35.288 9.00488 33.56C9.00488 31.352 14.9569 14.744 17.8849 9.512C18.6049 8.264 20.5729 6.824 20.7649 6.68C15.1009 7.256 9.82088 10.568 9.82088 15.032C9.82088 18.056 11.0209 18.728 11.0209 19.256C11.0209 19.544 10.7329 19.736 10.2529 19.736C7.94888 19.736 3.19688 17.48 3.19688 12.92C3.19688 4.904 12.9409 3.32 22.3969 3.32C27.4849 3.32 31.6609 3.848 33.6289 3.848C37.2769 3.848 39.5809 2.504 40.2049 2.504C40.5409 2.504 40.7329 2.744 40.7329 3.032C40.7329 5.912 36.7969 11.432 34.9729 11.432C33.1969 11.432 30.1249 7.688 26.8609 7.688C26.2369 7.688 25.7569 8.072 25.2289 9.032C23.7409 11.96 22.8289 14.984 21.5809 18.104ZM45.3356 10.184C45.3356 13.016 36.2636 30.632 36.2636 34.28C36.2636 35 36.1196 35.432 35.3516 35.432C33.0956 35.432 29.9756 34.856 29.9756 33.128C29.9756 29.672 39.2876 11.336 39.2876 7.496C39.2876 7.016 39.7196 6.68 40.6316 6.68C42.6476 6.68 45.3356 8.84 45.3356 10.184ZM49.9384 22.184C49.9384 24.68 47.3944 27.704 47.3944 30.104C47.3944 30.68 47.6824 30.968 48.2104 30.968C50.9944 30.968 54.3064 23.432 54.3064 18.92C54.3064 18.44 54.6424 18.104 55.3144 18.104C58.0984 18.104 60.8344 20.072 60.8344 21.608C60.8344 23.096 57.2344 28.232 57.2344 32.504C57.2344 34.184 57.5704 34.232 57.5704 34.856C57.5704 35.192 57.3304 35.432 56.8504 35.432C52.9624 35.432 51.4744 32.744 51.1384 32.744C50.6104 32.744 48.0184 35.432 43.9864 35.432C41.7304 35.432 39.9544 34.136 39.9544 31.64C39.9544 28.184 43.8424 22.76 43.8424 18.92C43.8424 18.44 44.3224 18.104 45.2344 18.104C47.5864 18.104 49.9384 20.216 49.9384 22.184ZM73.6365 18.968C73.6365 18.536 74.4045 18.104 75.5565 18.104C79.0605 18.104 80.5485 19.352 80.5485 20.792C80.5485 23.048 77.4765 24.872 73.3485 26.936C74.7885 29.912 75.4125 31.784 76.8525 31.784C77.3325 31.784 77.6205 31.928 77.6205 32.36C77.6205 33.032 75.1725 35.432 71.7165 35.432C69.2205 35.432 68.3085 32.84 67.3485 30.2C65.6685 31.4 64.9485 32.168 64.9485 32.792C64.9485 33.752 65.8125 33.896 65.8125 34.52C65.8125 35.192 64.9485 35.672 63.3165 35.672C60.1965 35.672 58.6125 34.328 58.6125 32.936C58.6125 30.344 61.7805 28.424 65.6205 26.408C64.8045 23.912 64.2285 22.28 62.9325 22.28C62.4525 22.28 62.0685 22.184 62.0685 21.656C62.0685 20.744 64.9005 18.104 67.5885 18.104C70.1325 18.104 71.1405 20.456 72.0525 23.192C73.6845 22.376 74.2605 21.848 74.2605 20.984C74.2605 20.12 73.6365 19.688 73.6365 18.968ZM88.5653 22.184C88.5653 24.68 86.0213 27.704 86.0213 30.104C86.0213 30.68 86.3093 30.968 86.8373 30.968C89.6213 30.968 92.9333 23.432 92.9333 18.92C92.9333 18.44 93.2693 18.104 93.9413 18.104C96.7253 18.104 99.4613 20.072 99.4613 21.608C99.4613 23.096 95.8613 28.232 95.8613 32.504C95.8613 34.184 96.1973 34.232 96.1973 34.856C96.1973 35.192 95.9573 35.432 95.4773 35.432C91.5893 35.432 90.1013 32.744 89.7653 32.744C89.2373 32.744 86.6453 35.432 82.6133 35.432C80.3573 35.432 78.5813 34.136 78.5813 31.64C78.5813 28.184 82.4693 22.76 82.4693 18.92C82.4693 18.44 82.9493 18.104 83.8613 18.104C86.2133 18.104 88.5653 20.216 88.5653 22.184ZM129.351 21.272C129.351 24.536 125.463 28.808 125.463 33.464C125.463 35.864 126.951 37.736 129.879 37.736C131.367 37.736 132.039 37.208 132.471 37.208C132.807 37.208 133.047 37.448 133.047 37.784C133.047 38.744 130.023 41.912 124.887 41.912C120.903 41.912 117.639 39.272 117.639 35.384C117.639 29.768 122.103 25.16 122.103 23.24C122.103 22.808 121.863 22.52 121.335 22.52C120.615 22.52 119.031 23.144 117.639 25.304C115.959 27.896 114.231 32.216 114.231 34.28C114.231 35 114.087 35.432 113.319 35.432C111.063 35.432 108.183 34.856 108.183 33.128C108.183 30.392 111.399 24.728 111.399 23.24C111.399 22.808 111.063 22.52 110.583 22.52C109.863 22.52 109.095 22.856 107.703 25.016C106.023 27.656 103.767 32.216 103.767 34.28C103.767 35 103.623 35.432 102.855 35.432C100.599 35.432 97.4794 34.856 97.4794 33.128C97.4794 29.672 101.847 22.76 101.847 18.92C101.847 18.44 102.279 18.104 103.191 18.104C107.463 18.104 107.655 21.176 107.847 21.176C108.087 21.176 110.583 18.104 114.231 18.104C118.071 18.104 118.743 21.176 118.935 21.176C119.127 21.176 122.007 18.104 125.703 18.104C128.103 18.104 129.351 19.352 129.351 21.272Z" fill="#3E41C0"/>
<path d="M21.5809 18.104L21.1166 17.9183L21.9525 18.4385L21.5809 18.104ZM28.8289 22.088L29.2508 22.3565L29.2558 22.3483L28.8289 22.088ZM20.3809 21.224V20.724H20.0439L19.9174 21.0364L20.3809 21.224ZM16.1569 34.472L15.6652 34.3809L15.6637 34.3898L16.1569 34.472ZM17.8849 9.512L17.4517 9.26212L17.4486 9.26782L17.8849 9.512ZM20.7649 6.68L21.0649 7.08L22.5041 6.00055L20.7143 6.18256L20.7649 6.68ZM25.2289 9.032L24.7908 8.79104L24.7868 8.79819L24.7831 8.80547L25.2289 9.032ZM21.5809 18.104L21.9525 18.4385C21.9243 18.4698 21.9158 18.4665 21.9769 18.4311C22.0264 18.4024 22.0993 18.3653 22.1981 18.3205C22.3948 18.2313 22.6664 18.1241 23.0005 18.005C23.667 17.7674 24.5553 17.4923 25.5321 17.231C27.4992 16.7049 29.7621 16.252 31.2769 16.252V15.752V15.252C29.6237 15.252 27.2545 15.7351 25.2737 16.265C24.2765 16.5317 23.3617 16.8146 22.6648 17.063C22.3171 17.1869 22.0169 17.3047 21.7851 17.4097C21.6697 17.4621 21.5642 17.5145 21.4754 17.5659C21.3982 17.6106 21.2914 17.6782 21.2092 17.7695L21.5809 18.104ZM31.2769 15.752V16.252C31.6416 16.252 31.8232 16.3338 31.9009 16.392C31.967 16.4416 31.9769 16.4854 31.9769 16.52H32.4769H32.9769C32.9769 16.1706 32.8188 15.8304 32.5009 15.592C32.1945 15.3622 31.7762 15.252 31.2769 15.252V15.752ZM32.4769 16.52H31.9769C31.9769 16.4854 31.9826 16.518 31.9164 16.6597C31.8591 16.7823 31.7704 16.9405 31.6509 17.133C31.4124 17.517 31.0777 17.9954 30.6966 18.5265C29.9449 19.5742 29.0148 20.8226 28.402 21.8277L28.8289 22.088L29.2558 22.3483C29.8429 21.3854 30.7368 20.1858 31.5091 19.1095C31.8901 18.5786 32.2424 18.076 32.5004 17.6605C32.6291 17.4533 32.741 17.2571 32.8223 17.0832C32.8946 16.9285 32.9769 16.7226 32.9769 16.52H32.4769ZM28.8289 22.088L28.407 21.8196C28.2287 22.0998 28.1452 22.2157 28.0794 22.2752C28.0571 22.2954 28.0476 22.2985 28.0449 22.2994C28.0399 22.3012 28.0191 22.308 27.9649 22.308V22.808V23.308C28.2651 23.308 28.5214 23.2239 28.7503 23.0168C28.9365 22.8483 29.093 22.6042 29.2507 22.3564L28.8289 22.088ZM27.9649 22.808V22.308C27.995 22.308 27.9688 22.3106 27.8197 22.2633C27.6937 22.2234 27.5299 22.165 27.3197 22.0898C26.9052 21.9414 26.3433 21.7392 25.666 21.5369C24.311 21.1323 22.4847 20.724 20.3809 20.724V21.224V21.724C22.357 21.724 24.0827 22.1077 25.3798 22.4951C26.0285 22.6888 26.5675 22.8826 26.9826 23.0312C27.1871 23.1045 27.3702 23.1699 27.5174 23.2165C27.6414 23.2559 27.8147 23.308 27.9649 23.308V22.808ZM20.3809 21.224C19.9174 21.0364 19.9174 21.0365 19.9173 21.0366C19.9173 21.0366 19.9173 21.0367 19.9172 21.0369C19.9171 21.0372 19.9169 21.0376 19.9167 21.0381C19.9163 21.0392 19.9157 21.0407 19.9149 21.0427C19.9132 21.0468 19.9108 21.0527 19.9076 21.0606C19.9013 21.0763 19.892 21.0996 19.8798 21.1301C19.8554 21.191 19.8196 21.2809 19.7737 21.3969C19.6821 21.6289 19.5502 21.9657 19.389 22.386C19.0668 23.2263 18.6271 24.4008 18.1571 25.7383C17.22 28.4056 16.1527 31.7484 15.6652 34.381L16.1569 34.472L16.6485 34.563C17.121 32.0116 18.1658 28.7304 19.1006 26.0697C19.5667 24.7432 20.003 23.5777 20.3227 22.744C20.4826 22.3273 20.6132 21.9936 20.7038 21.7644C20.7491 21.6498 20.7843 21.5613 20.8082 21.5016C20.8201 21.4717 20.8292 21.4491 20.8353 21.434C20.8384 21.4264 20.8406 21.4208 20.8422 21.417C20.8429 21.4151 20.8435 21.4138 20.8438 21.4128C20.844 21.4124 20.8442 21.4121 20.8442 21.4119C20.8443 21.4118 20.8443 21.4117 20.8443 21.4116C20.8443 21.4116 20.8444 21.4116 20.3809 21.224ZM16.1569 34.472L15.6637 34.3898C15.5929 34.8145 15.5104 35.0602 15.4101 35.1985C15.3424 35.2919 15.2507 35.364 15.0049 35.364V35.864V36.364C15.5271 36.364 15.9394 36.1721 16.2197 35.7855C16.4674 35.4438 16.5768 34.9935 16.6501 34.5542L16.1569 34.472ZM15.0049 35.864V35.364C13.9327 35.364 12.483 35.223 11.318 34.8803C10.7329 34.7082 10.2556 34.4955 9.93481 34.2512C9.61944 34.011 9.50488 33.7827 9.50488 33.56H9.00488H8.50488C8.50488 34.2013 8.86432 34.693 9.32895 35.0468C9.78812 35.3965 10.3969 35.6518 11.0358 35.8397C12.3187 36.217 13.8691 36.364 15.0049 36.364V35.864ZM9.00488 33.56H9.50488C9.50488 33.3543 9.58141 32.9104 9.75149 32.2283C9.91682 31.5653 10.1578 30.7248 10.4582 29.7547C11.0589 27.8155 11.8915 25.3771 12.8166 22.8414C14.6713 17.7575 16.8792 12.3328 18.3212 9.75618L17.8849 9.512L17.4486 9.26782C15.9625 11.9232 13.7305 17.4185 11.8772 22.4986C10.9483 25.0449 10.1099 27.4995 9.50301 29.4588C9.19973 30.438 8.95281 31.2981 8.7812 31.9864C8.61435 32.6556 8.50488 33.2137 8.50488 33.56H9.00488ZM17.8849 9.512L18.318 9.76186C18.6344 9.21345 19.2525 8.58669 19.8534 8.05713C20.4427 7.53787 20.9678 7.15278 21.0649 7.08L20.7649 6.68L20.4649 6.28C20.3699 6.35121 19.815 6.75813 19.1923 7.30686C18.5813 7.84531 17.8554 8.56255 17.4518 9.26214L17.8849 9.512ZM20.7649 6.68L20.7143 6.18256C17.809 6.47802 14.9865 7.47546 12.877 8.99203C10.7696 10.5071 9.32088 12.5849 9.32088 15.032H9.82088H10.3209C10.3209 13.0151 11.5122 11.2049 13.4607 9.80397C15.4073 8.40454 18.0568 7.45798 20.8155 7.17743L20.7649 6.68ZM9.82088 15.032H9.32088C9.32088 16.6168 9.63683 17.6165 9.97192 18.3001C10.135 18.6327 10.3025 18.8883 10.4065 19.0588C10.5338 19.2676 10.5209 19.2882 10.5209 19.256H11.0209H11.5209C11.5209 18.9598 11.358 18.6984 11.2603 18.5382C11.1392 18.3397 11.0068 18.1393 10.8698 17.8599C10.6049 17.3195 10.3209 16.4712 10.3209 15.032H9.82088ZM11.0209 19.256H10.5209C10.5209 19.2415 10.5254 19.2193 10.5377 19.1985C10.549 19.1794 10.558 19.1761 10.5484 19.1822C10.5232 19.1982 10.4352 19.236 10.2529 19.236V19.736V20.236C10.5506 20.236 10.8465 20.1778 11.0853 20.0258C11.3412 19.863 11.5209 19.5937 11.5209 19.256H11.0209ZM10.2529 19.736V19.236C9.22773 19.236 7.56835 18.7193 6.1655 17.6415C4.7777 16.5753 3.69688 15.0053 3.69688 12.92H3.19688H2.69688C2.69688 15.3947 3.99205 17.2327 5.55626 18.4345C7.1054 19.6247 8.97403 20.236 10.2529 20.236V19.736ZM3.19688 12.92H3.69688C3.69688 11.0264 4.26896 9.53916 5.25151 8.35801C6.24144 7.168 7.67264 6.25986 9.43109 5.58039C12.9585 4.21738 17.6807 3.82 22.3969 3.82V3.32V2.82C17.6571 2.82 12.7792 3.21461 9.07066 4.64761C7.21111 5.36614 5.61531 6.357 4.48274 7.71849C3.3428 9.08884 2.69688 10.8056 2.69688 12.92H3.19688ZM22.3969 3.32V3.82C24.9241 3.82 27.2271 3.95113 29.1487 4.08283C31.055 4.21348 32.6221 4.348 33.6289 4.348V3.848V3.348C32.6676 3.348 31.1628 3.21852 29.2171 3.08517C27.2867 2.95287 24.9576 2.82 22.3969 2.82V3.32ZM33.6289 3.848V4.348C35.5157 4.348 37.054 4.00017 38.1957 3.65455C38.7637 3.48263 39.2379 3.30971 39.592 3.18603C39.7724 3.12302 39.9151 3.07507 40.0289 3.04285C40.0852 3.02694 40.1284 3.01657 40.1612 3.01038C40.1954 3.00391 40.2078 3.004 40.2049 3.004V2.504V2.004C40.0537 2.004 39.8934 2.04193 39.7566 2.08065C39.6108 2.12193 39.4426 2.17898 39.2623 2.24196C38.8948 2.37029 38.4481 2.53336 37.906 2.69744C36.8278 3.02383 35.3901 3.348 33.6289 3.348V3.848ZM40.2049 2.504V3.004C40.2171 3.004 40.2254 3.00508 40.2305 3.00604C40.2355 3.007 40.2378 3.00793 40.238 3.00801C40.2381 3.00808 40.237 3.00763 40.2352 3.00637C40.2334 3.00512 40.2316 3.00359 40.2301 3.00197C40.2223 2.9936 40.2329 2.99804 40.2329 3.032H40.7329H41.2329C41.2329 2.77796 41.1475 2.5184 40.9596 2.31803C40.7671 2.11263 40.4989 2.004 40.2049 2.004V2.504ZM40.7329 3.032H40.2329C40.2329 3.65326 40.0164 4.46538 39.6302 5.36164C39.2479 6.24884 38.7163 7.17955 38.1266 8.02622C37.5359 8.87429 36.8975 9.62264 36.308 10.1527C36.0131 10.4179 35.7406 10.6193 35.5015 10.752C35.2566 10.8878 35.082 10.932 34.9729 10.932V11.432V11.932C35.3198 11.932 35.6671 11.8037 35.9866 11.6264C36.3119 11.4459 36.6461 11.1936 36.9767 10.8963C37.6383 10.3014 38.3259 9.48971 38.9472 8.59778C39.5694 7.70444 40.1359 6.71516 40.5486 5.75736C40.9574 4.80861 41.2329 3.85074 41.2329 3.032H40.7329ZM34.9729 11.432V10.932C34.678 10.932 34.2573 10.767 33.6712 10.4175C33.0971 10.0753 32.4724 9.62617 31.753 9.14452C30.3642 8.21465 28.6631 7.188 26.8609 7.188V7.688V8.188C28.3227 8.188 29.7896 9.03335 31.1967 9.97548C31.8753 10.4298 32.5556 10.9167 33.1591 11.2765C33.7504 11.629 34.3797 11.932 34.9729 11.932V11.432ZM26.8609 7.688V7.188C26.4305 7.188 26.0433 7.32582 25.6923 7.61302C25.3569 7.88744 25.0681 8.28688 24.7908 8.79104L25.2289 9.032L25.667 9.27296C25.9177 8.81712 26.1329 8.54456 26.3255 8.38698C26.5025 8.24218 26.6673 8.188 26.8609 8.188V7.688ZM25.2289 9.032L24.7831 8.80547C23.2829 11.7575 22.3425 14.8536 21.1166 17.9183L21.5809 18.104L22.0451 18.2897C23.3152 15.1144 24.1988 12.1625 25.6746 9.25853L25.2289 9.032ZM45.3356 10.184H44.8356C44.8356 10.4481 44.7204 10.9623 44.4705 11.7277C44.2276 12.4716 43.8782 13.3941 43.4545 14.4436C42.6072 16.5424 41.4768 19.1157 40.3411 21.7266C39.2077 24.3323 38.0695 26.9743 37.2145 29.1946C36.7871 30.3046 36.4275 31.3168 36.1741 32.1712C35.9247 33.012 35.7636 33.7461 35.7636 34.28H36.2636H36.7636C36.7636 33.9019 36.886 33.2875 37.1328 32.4556C37.3755 31.6373 37.7246 30.6527 38.1477 29.5539C38.9938 27.3567 40.1236 24.7337 41.2581 22.1254C42.3904 19.5223 43.5281 16.9326 44.3818 14.8179C44.8086 13.7606 45.1679 12.8138 45.4211 12.038C45.6674 11.2837 45.8356 10.6279 45.8356 10.184H45.3356ZM36.2636 34.28H35.7636C35.7636 34.6374 35.7207 34.787 35.6796 34.8486C35.6744 34.8564 35.641 34.932 35.3516 34.932V35.432V35.932C35.8302 35.932 36.2528 35.7916 36.5117 35.4034C36.7346 35.069 36.7636 34.6426 36.7636 34.28H36.2636ZM35.3516 35.432V34.932C34.255 34.932 32.9703 34.7908 31.9781 34.4545C31.4811 34.286 31.0915 34.0798 30.8341 33.8465C30.5868 33.6224 30.4756 33.3893 30.4756 33.128H29.9756H29.4756C29.4756 33.7307 29.7544 34.2176 30.1626 34.5875C30.5607 34.9482 31.0922 35.21 31.6571 35.4015C32.789 35.7852 34.1922 35.932 35.3516 35.932V35.432ZM29.9756 33.128H30.4756C30.4756 32.7772 30.5999 32.1757 30.8542 31.337C31.1037 30.5144 31.4625 29.5126 31.8972 28.3848C32.7665 26.1293 33.9267 23.4022 35.092 20.651C36.2552 17.905 37.4233 15.1356 38.3004 12.8116C38.739 11.6496 39.1078 10.5912 39.3676 9.69774C39.6236 8.81745 39.7876 8.05231 39.7876 7.496H39.2876H38.7876C38.7876 7.89968 38.6607 8.54755 38.4074 9.41851C38.158 10.2763 37.7993 11.3074 37.3648 12.4584C36.496 14.7604 35.3361 17.511 34.1712 20.261C33.0086 23.0058 31.8407 25.7507 30.9641 28.0252C30.5258 29.1624 30.1571 30.1901 29.8973 31.0468C29.6424 31.8873 29.4756 32.6148 29.4756 33.128H29.9756ZM39.2876 7.496H39.7876C39.7876 7.43104 39.8051 7.3824 39.8897 7.32748C39.999 7.2566 40.2258 7.18 40.6316 7.18V6.68V6.18C40.1255 6.18 39.6803 6.2714 39.3455 6.48852C38.9862 6.7216 38.7876 7.08096 38.7876 7.496H39.2876ZM40.6316 6.68V7.18C41.4864 7.18 42.5567 7.6515 43.4355 8.32489C43.8678 8.65609 44.2299 9.0185 44.4792 9.36275C44.7367 9.71846 44.8356 10.0013 44.8356 10.184H45.3356H45.8356C45.8356 9.69468 45.5985 9.20354 45.2891 8.77625C44.9714 8.33749 44.5355 7.90791 44.0437 7.53111C43.0746 6.7885 41.7929 6.18 40.6316 6.18V6.68ZM49.9384 22.184H49.4384C49.4384 23.2986 48.8636 24.5697 48.213 25.9692C47.8974 26.648 47.5691 27.3502 47.3216 28.0351C47.0744 28.7193 46.8944 29.4208 46.8944 30.104H47.3944H47.8944C47.8944 29.5872 48.0324 29.0107 48.2621 28.3749C48.4916 27.7398 48.7994 27.08 49.1198 26.3908C49.7411 25.0543 50.4384 23.5654 50.4384 22.184H49.9384ZM47.3944 30.104H46.8944C46.8944 30.4692 46.9859 30.8292 47.2434 31.098C47.5044 31.3703 47.858 31.468 48.2104 31.468V30.968V30.468C48.0347 30.468 47.9804 30.4217 47.9654 30.406C47.9469 30.3868 47.8944 30.3148 47.8944 30.104H47.3944ZM48.2104 30.968V31.468C49.1253 31.468 49.9804 30.861 50.7084 30.0552C51.4534 29.2306 52.1528 28.1021 52.7531 26.8525C53.9507 24.3596 54.8064 21.2726 54.8064 18.92H54.3064H53.8064C53.8064 21.0794 53.0061 24.0164 51.8517 26.4195C51.276 27.6179 50.6254 28.6554 49.9664 29.3848C49.2904 30.133 48.6875 30.468 48.2104 30.468V30.968ZM54.3064 18.92H54.8064C54.8064 18.8033 54.8427 18.7468 54.8838 18.7116C54.9341 18.6685 55.0565 18.604 55.3144 18.604V18.104V17.604C54.9003 17.604 54.5187 17.7075 54.233 17.9524C53.9381 18.2052 53.8064 18.5567 53.8064 18.92H54.3064ZM55.3144 18.104V18.604C56.5955 18.604 57.8809 19.0597 58.8421 19.6968C59.3215 20.0145 59.7046 20.3671 59.9632 20.7123C60.2253 21.0622 60.3344 21.3697 60.3344 21.608H60.8344H61.3344C61.3344 21.0783 61.1014 20.5638 60.7636 20.1127C60.4221 19.6569 59.9473 19.2295 59.3946 18.8632C58.2919 18.1323 56.8172 17.604 55.3144 17.604V18.104ZM60.8344 21.608H60.3344C60.3344 21.7097 60.3002 21.8894 60.206 22.1681C60.1151 22.4372 59.9818 22.7599 59.8152 23.134C59.6489 23.5071 59.4545 23.9202 59.2428 24.3703C59.032 24.8188 58.8053 25.3017 58.5783 25.8072C57.6779 27.8121 56.7344 30.2509 56.7344 32.504H57.2344H57.7344C57.7344 30.4851 58.5909 28.2199 59.4905 26.2168C59.7135 25.7203 59.9368 25.2447 60.1478 24.7958C60.358 24.3486 60.5573 23.9254 60.7286 23.541C60.8994 23.1576 61.0475 22.8016 61.1534 22.4883C61.256 22.1846 61.3344 21.8783 61.3344 21.608H60.8344ZM57.2344 32.504H56.7344C56.7344 33.3816 56.8226 33.8598 56.9209 34.2108C57.025 34.5825 57.0704 34.6351 57.0704 34.856H57.5704H58.0704C58.0704 34.4529 57.9478 34.1695 57.8839 33.9412C57.8141 33.6922 57.7344 33.3064 57.7344 32.504H57.2344ZM57.5704 34.856H57.0704C57.0704 34.8803 57.0662 34.89 57.0661 34.8902C57.0659 34.8905 57.0662 34.8898 57.0669 34.8889C57.0676 34.8879 57.0678 34.888 57.0666 34.889C57.0636 34.8915 57.0122 34.932 56.8504 34.932V35.432V35.932C57.1686 35.932 57.4771 35.8525 57.7142 35.651C57.9606 35.4415 58.0704 35.1503 58.0704 34.856H57.5704ZM56.8504 35.432V34.932C55.0335 34.932 53.792 34.3075 52.9615 33.6874C52.5427 33.3746 52.225 33.0605 51.9826 32.8136C51.8673 32.6963 51.7516 32.5759 51.6581 32.4904C51.6108 32.4472 51.5521 32.3968 51.4876 32.3549C51.4369 32.322 51.3093 32.244 51.1384 32.244V32.744V33.244C51.0672 33.244 51.0146 33.2267 50.9885 33.2163C50.9615 33.2056 50.9456 33.1953 50.9428 33.1935C50.9389 33.1909 50.9504 33.1983 50.9835 33.2286C51.0509 33.2901 51.1369 33.3797 51.2692 33.5144C51.5217 33.7715 51.882 34.1294 52.3632 34.4886C53.3327 35.2125 54.7792 35.932 56.8504 35.932V35.432ZM51.1384 32.744V32.244C51.011 32.244 50.9 32.2817 50.8288 32.3103C50.7504 32.3418 50.6716 32.3828 50.5977 32.4248C50.4508 32.5083 50.2758 32.6233 50.0889 32.7472C49.706 33.001 49.2232 33.3256 48.6348 33.6502C47.4601 34.2983 45.8887 34.932 43.9864 34.932V35.432V35.932C46.1161 35.932 47.8566 35.2217 49.1179 34.5258C49.7476 34.1784 50.2638 33.831 50.6413 33.5808C50.8347 33.4527 50.9803 33.3577 51.092 33.2942C51.1473 33.2627 51.1824 33.2459 51.2018 33.2381C51.2286 33.2273 51.1998 33.244 51.1384 33.244V32.744ZM43.9864 35.432V34.932C42.9501 34.932 42.0687 34.6345 41.4538 34.0959C40.8481 33.5653 40.4544 32.7605 40.4544 31.64H39.9544H39.4544C39.4544 33.0155 39.9486 34.1067 40.7949 34.8481C41.6321 35.5815 42.7667 35.932 43.9864 35.932V35.432ZM39.9544 31.64H40.4544C40.4544 30.8597 40.6758 29.9354 41.0344 28.8978C41.3918 27.8642 41.8695 26.7608 42.358 25.621C42.8429 24.4894 43.3374 23.3244 43.7096 22.1985C44.081 21.075 44.3424 19.9575 44.3424 18.92H43.8424H43.3424C43.3424 19.8025 43.1177 20.803 42.7602 21.8845C42.4034 22.9636 41.9259 24.0906 41.4388 25.227C40.9553 26.3552 40.461 27.4958 40.0893 28.5712C39.719 29.6426 39.4544 30.6923 39.4544 31.64H39.9544ZM43.8424 18.92H44.3424C44.3424 18.8757 44.3525 18.823 44.4584 18.7578C44.5846 18.6802 44.8296 18.604 45.2344 18.604V18.104V17.604C44.7271 17.604 44.2761 17.6958 43.9343 17.9062C43.5723 18.129 43.3424 18.4843 43.3424 18.92H43.8424ZM45.2344 18.104V18.604C46.2664 18.604 47.3292 19.0716 48.1386 19.7818C48.9547 20.498 49.4384 21.392 49.4384 22.184H49.9384H50.4384C50.4384 21.008 49.7461 19.862 48.7982 19.0302C47.8435 18.1924 46.5543 17.604 45.2344 17.604V18.104ZM73.3485 26.936L73.1249 26.4888L72.6834 26.7095L72.8984 27.1538L73.3485 26.936ZM67.3485 30.2L67.8184 30.0291L67.5935 29.4106L67.0579 29.7931L67.3485 30.2ZM65.6205 26.408L65.8529 26.8507L66.2271 26.6543L66.0957 26.2526L65.6205 26.408ZM72.0525 23.192L71.5782 23.3501L71.7605 23.897L72.2761 23.6392L72.0525 23.192ZM73.6365 18.968H74.1365C74.1365 19.0568 74.086 18.9669 74.3817 18.8244C74.6352 18.7022 75.0374 18.604 75.5565 18.604V18.104V17.604C74.9236 17.604 74.3659 17.7218 73.9473 17.9236C73.571 18.1051 73.1365 18.4472 73.1365 18.968H73.6365ZM75.5565 18.104V18.604C77.2594 18.604 78.4049 18.9089 79.1069 19.3353C79.7904 19.7505 80.0485 20.2717 80.0485 20.792H80.5485H81.0485C81.0485 19.8723 80.5626 19.0495 79.6261 18.4807C78.7081 17.9231 77.3576 17.604 75.5565 17.604V18.104ZM80.5485 20.792H80.0485C80.0485 21.6768 79.4453 22.5672 78.19 23.5409C76.9495 24.5032 75.1905 25.456 73.1249 26.4888L73.3485 26.936L73.5721 27.3832C75.6345 26.352 77.4755 25.3608 78.803 24.3311C80.1157 23.3128 81.0485 22.1632 81.0485 20.792H80.5485ZM73.3485 26.936L72.8984 27.1538C73.6007 28.6051 74.1411 29.8694 74.6745 30.7377C75.2114 31.6119 75.8575 32.284 76.8525 32.284V31.784V31.284C76.4075 31.284 76.0216 31.0201 75.5265 30.2143C75.0279 29.4026 74.5363 28.2429 73.7986 26.7182L73.3485 26.936ZM76.8525 31.784V32.284C76.9495 32.284 77.0204 32.2915 77.0702 32.3022C77.12 32.3128 77.1361 32.324 77.1348 32.3231C77.1292 32.3193 77.1195 32.309 77.1146 32.2984C77.1115 32.2919 77.1205 32.3065 77.1205 32.36H77.6205H78.1205C78.1205 32.0191 77.9971 31.7007 77.6982 31.4969C77.4397 31.3206 77.1228 31.284 76.8525 31.284V31.784ZM77.6205 32.36H77.1205C77.1205 32.3138 77.1333 32.3331 77.0736 32.4383C77.0219 32.5296 76.9357 32.65 76.81 32.7916C76.5595 33.074 76.1803 33.4088 75.6905 33.7298C74.7109 34.3716 73.3286 34.932 71.7165 34.932V35.432V35.932C73.5604 35.932 75.1301 35.2924 76.2385 34.5662C76.7927 34.2032 77.2415 33.812 77.558 33.4554C77.7158 33.2775 77.8479 33.1002 77.9435 32.9316C78.0312 32.7769 78.1205 32.5742 78.1205 32.36H77.6205ZM71.7165 35.432V34.932C70.6862 34.932 69.9711 34.4156 69.371 33.5263C68.7529 32.6104 68.3056 31.3689 67.8184 30.0291L67.3485 30.2L66.8786 30.3709C67.3514 31.6711 67.8401 33.0456 68.542 34.0857C69.2619 35.1524 70.2508 35.932 71.7165 35.932V35.432ZM67.3485 30.2L67.0579 29.7931C66.2104 30.3985 65.5773 30.9139 65.1521 31.3718C64.7369 31.8189 64.4485 32.2865 64.4485 32.792H64.9485H65.4485C65.4485 32.6735 65.5201 32.4451 65.8849 32.0522C66.2397 31.6701 66.8066 31.2015 67.6391 30.6069L67.3485 30.2ZM64.9485 32.792H64.4485C64.4485 33.4602 64.7667 33.8543 65.0131 34.1211C65.1447 34.2637 65.2122 34.3285 65.2673 34.4076C65.3076 34.4655 65.3125 34.4934 65.3125 34.52H65.8125H66.3125C66.3125 34.2346 66.2094 34.0105 66.0877 33.8359C65.9808 33.6825 65.8323 33.5343 65.7479 33.4429C65.5623 33.2417 65.4485 33.0838 65.4485 32.792H64.9485ZM65.8125 34.52H65.3125C65.3125 34.5971 65.2762 34.7437 64.958 34.8982C64.6332 35.0561 64.0941 35.172 63.3165 35.172V35.672V36.172C64.1709 36.172 64.8799 36.0479 65.395 35.7978C65.9168 35.5443 66.3125 35.1149 66.3125 34.52H65.8125ZM63.3165 35.672V35.172C61.8224 35.172 60.7492 34.8494 60.0667 34.4066C59.3878 33.9661 59.1125 33.4248 59.1125 32.936H58.6125H58.1125C58.1125 33.8392 58.6292 34.6659 59.5223 35.2454C60.4118 35.8226 61.6906 36.172 63.3165 36.172V35.672ZM58.6125 32.936H59.1125C59.1125 31.8634 59.7647 30.8628 60.9959 29.8407C62.2224 28.8224 63.9304 27.86 65.8529 26.8507L65.6205 26.408L65.3881 25.9653C63.4706 26.972 61.6746 27.9776 60.3571 29.0713C59.0443 30.1612 58.1125 31.4166 58.1125 32.936H58.6125ZM65.6205 26.408L66.0957 26.2526C65.6926 25.0196 65.3294 23.9342 64.8915 23.1615C64.4492 22.381 63.849 21.78 62.9325 21.78V22.28V22.78C63.312 22.78 63.6478 22.995 64.0215 23.6545C64.3996 24.3218 64.7324 25.3004 65.1453 26.5634L65.6205 26.408ZM62.9325 22.28V21.78C62.8268 21.78 62.743 21.7745 62.6772 21.7636C62.6107 21.7525 62.5802 21.7386 62.5704 21.7329C62.5664 21.7306 62.5745 21.7357 62.5792 21.7447C62.5816 21.7494 62.5685 21.7283 62.5685 21.656H62.0685H61.5685C61.5685 21.8477 61.6034 22.0366 61.6929 22.2078C61.7845 22.3833 61.9186 22.5114 62.0706 22.5991C62.3498 22.7602 62.6833 22.78 62.9325 22.78V22.28ZM62.0685 21.656H62.5685C62.5685 21.6581 62.5723 21.6009 62.6393 21.4717C62.7016 21.3515 62.801 21.2027 62.9399 21.0329C63.2173 20.694 63.6238 20.3062 64.1183 19.9397C65.118 19.1985 66.3942 18.604 67.5885 18.604V18.104V17.604C66.0948 17.604 64.611 18.3295 63.5227 19.1363C62.9732 19.5438 62.5037 19.987 62.1661 20.3996C61.9975 20.6056 61.8546 20.8126 61.7516 21.0114C61.6532 21.2011 61.5685 21.4259 61.5685 21.656H62.0685ZM67.5885 18.104V18.604C68.6691 18.604 69.4189 19.0878 70.0297 19.9182C70.6613 20.777 71.1208 21.978 71.5782 23.3501L72.0525 23.192L72.5268 23.0339C72.0722 21.67 71.5717 20.327 70.8353 19.3258C70.0781 18.2962 69.0519 17.604 67.5885 17.604V18.104ZM72.0525 23.192L72.2761 23.6392C73.0957 23.2294 73.7103 22.8643 74.119 22.4626C74.5567 22.0324 74.7605 21.5582 74.7605 20.984H74.2605H73.7605C73.7605 21.2738 73.6763 21.4956 73.418 21.7494C73.1307 22.0317 72.6413 22.3386 71.8289 22.7448L72.0525 23.192ZM74.2605 20.984H74.7605C74.7605 20.423 74.5526 20.0061 74.394 19.6949C74.225 19.3636 74.1365 19.186 74.1365 18.968H73.6365H73.1365C73.1365 19.47 73.36 19.8684 73.5031 20.1491C73.6564 20.4499 73.7605 20.681 73.7605 20.984H74.2605ZM88.5653 22.184H88.0653C88.0653 23.2986 87.4905 24.5697 86.8399 25.9692C86.5243 26.648 86.196 27.3502 85.9485 28.0351C85.7013 28.7193 85.5213 29.4208 85.5213 30.104H86.0213H86.5213C86.5213 29.5872 86.6592 29.0107 86.889 28.3749C87.1185 27.7398 87.4262 27.08 87.7467 26.3908C88.368 25.0543 89.0653 23.5654 89.0653 22.184H88.5653ZM86.0213 30.104H85.5213C85.5213 30.4692 85.6127 30.8292 85.8703 31.098C86.1313 31.3703 86.4849 31.468 86.8373 31.468V30.968V30.468C86.6616 30.468 86.6072 30.4217 86.5922 30.406C86.5738 30.3868 86.5213 30.3148 86.5213 30.104H86.0213ZM86.8373 30.968V31.468C87.7522 31.468 88.6073 30.861 89.3353 30.0552C90.0803 29.2306 90.7797 28.1021 91.38 26.8525C92.5775 24.3596 93.4333 21.2726 93.4333 18.92H92.9333H92.4333C92.4333 21.0794 91.633 24.0164 90.4786 26.4195C89.9028 27.6179 89.2523 28.6554 88.5933 29.3848C87.9173 30.133 87.3143 30.468 86.8373 30.468V30.968ZM92.9333 18.92H93.4333C93.4333 18.8033 93.4696 18.7468 93.5107 18.7116C93.561 18.6685 93.6833 18.604 93.9413 18.604V18.104V17.604C93.5272 17.604 93.1456 17.7075 92.8599 17.9524C92.5649 18.2052 92.4333 18.5567 92.4333 18.92H92.9333ZM93.9413 18.104V18.604C95.2224 18.604 96.5078 19.0597 97.469 19.6968C97.9483 20.0145 98.3315 20.3671 98.5901 20.7123C98.8522 21.0622 98.9613 21.3697 98.9613 21.608H99.4613H99.9613C99.9613 21.0783 99.7283 20.5638 99.3904 20.1127C99.049 19.6569 98.5742 19.2295 98.0215 18.8632C96.9187 18.1323 95.4441 17.604 93.9413 17.604V18.104ZM99.4613 21.608H98.9613C98.9613 21.7097 98.9271 21.8894 98.8329 22.1681C98.7419 22.4372 98.6087 22.7599 98.442 23.134C98.2758 23.5071 98.0813 23.9202 97.8697 24.3703C97.6589 24.8188 97.4322 25.3017 97.2051 25.8072C96.3047 27.8121 95.3613 30.2509 95.3613 32.504H95.8613H96.3613C96.3613 30.4851 97.2178 28.2199 98.1174 26.2168C98.3404 25.7203 98.5636 25.2447 98.7747 24.7958C98.9849 24.3486 99.1842 23.9254 99.3555 23.541C99.5263 23.1576 99.6743 22.8016 99.7802 22.4883C99.8829 22.1846 99.9613 21.8783 99.9613 21.608H99.4613ZM95.8613 32.504H95.3613C95.3613 33.3816 95.4495 33.8598 95.5478 34.2108C95.6518 34.5825 95.6973 34.6351 95.6973 34.856H96.1973H96.6973C96.6973 34.4529 96.5747 34.1695 96.5107 33.9412C96.441 33.6922 96.3613 33.3064 96.3613 32.504H95.8613ZM96.1973 34.856H95.6973C95.6973 34.8803 95.693 34.89 95.6929 34.8902C95.6928 34.8905 95.6931 34.8898 95.6938 34.8889C95.6945 34.8879 95.6947 34.888 95.6934 34.889C95.6905 34.8915 95.6391 34.932 95.4773 34.932V35.432V35.932C95.7954 35.932 96.104 35.8525 96.3411 35.651C96.5875 35.4415 96.6973 35.1503 96.6973 34.856H96.1973ZM95.4773 35.432V34.932C93.6604 34.932 92.4189 34.3075 91.5884 33.6874C91.1696 33.3746 90.8519 33.0605 90.6095 32.8136C90.4942 32.6963 90.3785 32.5759 90.285 32.4904C90.2377 32.4472 90.179 32.3968 90.1144 32.3549C90.0638 32.322 89.9362 32.244 89.7653 32.244V32.744V33.244C89.6941 33.244 89.6415 33.2267 89.6154 33.2163C89.5884 33.2056 89.5725 33.1953 89.5697 33.1935C89.5658 33.1909 89.5772 33.1983 89.6104 33.2286C89.6777 33.2901 89.7638 33.3797 89.896 33.5144C90.1486 33.7715 90.5089 34.1294 90.9901 34.4886C91.9596 35.2125 93.4061 35.932 95.4773 35.932V35.432ZM89.7653 32.744V32.244C89.6378 32.244 89.5269 32.2817 89.4557 32.3103C89.3773 32.3418 89.2985 32.3828 89.2246 32.4248C89.0777 32.5083 88.9027 32.6233 88.7158 32.7472C88.3328 33.001 87.85 33.3256 87.2617 33.6502C86.087 34.2983 84.5156 34.932 82.6133 34.932V35.432V35.932C84.7429 35.932 86.4835 35.2217 87.7448 34.5258C88.3745 34.1784 88.8907 33.831 89.2682 33.5808C89.4616 33.4527 89.6072 33.3577 89.7188 33.2942C89.7742 33.2627 89.8092 33.2459 89.8287 33.2381C89.8555 33.2273 89.8267 33.244 89.7653 33.244V32.744ZM82.6133 35.432V34.932C81.577 34.932 80.6956 34.6345 80.0807 34.0959C79.475 33.5653 79.0813 32.7605 79.0813 31.64H78.5813H78.0813C78.0813 33.0155 78.5755 34.1067 79.4218 34.8481C80.2589 35.5815 81.3935 35.932 82.6133 35.932V35.432ZM78.5813 31.64H79.0813C79.0813 30.8597 79.3027 29.9354 79.6613 28.8978C80.0186 27.8642 80.4963 26.7608 80.9848 25.621C81.4698 24.4894 81.9642 23.3244 82.3365 22.1985C82.7079 21.075 82.9693 19.9575 82.9693 18.92H82.4693H81.9693C81.9693 19.8025 81.7446 20.803 81.387 21.8845C81.0303 22.9636 80.5527 24.0906 80.0657 25.227C79.5822 26.3552 79.0879 27.4958 78.7162 28.5712C78.3458 29.6426 78.0813 30.6923 78.0813 31.64H78.5813ZM82.4693 18.92H82.9693C82.9693 18.8757 82.9793 18.823 83.0853 18.7578C83.2115 18.6802 83.4565 18.604 83.8613 18.604V18.104V17.604C83.354 17.604 82.903 17.6958 82.5612 17.9062C82.1992 18.129 81.9693 18.4843 81.9693 18.92H82.4693ZM83.8613 18.104V18.604C84.8933 18.604 85.9561 19.0716 86.7655 19.7818C87.5816 20.498 88.0653 21.392 88.0653 22.184H88.5653H89.0653C89.0653 21.008 88.3729 19.862 87.425 19.0302C86.4704 18.1924 85.1812 17.604 83.8613 17.604V18.104ZM117.639 25.304L118.059 25.5759L118.06 25.5749L117.639 25.304ZM107.703 25.016L107.283 24.7451L107.282 24.7476L107.703 25.016ZM129.351 21.272H128.851C128.851 21.9955 128.635 22.8059 128.278 23.7172C127.922 24.6286 127.447 25.5911 126.955 26.6325C125.986 28.6839 124.963 31.0101 124.963 33.464H125.463H125.963C125.963 31.2619 126.884 29.1241 127.859 27.0595C128.34 26.0429 128.837 25.0344 129.21 24.0813C129.582 23.1281 129.851 22.1805 129.851 21.272H129.351ZM125.463 33.464H124.963C124.963 34.766 125.368 35.9674 126.213 36.8464C127.061 37.7296 128.305 38.236 129.879 38.236V37.736V37.236C128.526 37.236 127.561 36.8064 126.934 36.1536C126.303 35.4966 125.963 34.562 125.963 33.464H125.463ZM129.879 37.736V38.236C130.688 38.236 131.281 38.0916 131.725 37.9477C131.915 37.8862 132.15 37.7989 132.253 37.7644C132.398 37.7156 132.452 37.708 132.471 37.708V37.208V36.708C132.274 36.708 132.083 36.7664 131.934 36.8166C131.742 36.8811 131.635 36.9258 131.417 36.9963C131.046 37.1164 130.559 37.236 129.879 37.236V37.736ZM132.471 37.208V37.708C132.496 37.708 132.51 37.7122 132.518 37.7153C132.526 37.7184 132.53 37.7216 132.532 37.7236C132.534 37.7256 132.537 37.7294 132.54 37.7371C132.543 37.7449 132.547 37.7599 132.547 37.784H133.047H133.547C133.547 37.1719 133.084 36.708 132.471 36.708V37.208ZM133.047 37.784H132.547C132.547 37.7809 132.548 37.7986 132.534 37.8413C132.522 37.8826 132.499 37.9378 132.464 38.0065C132.392 38.1446 132.277 38.3165 132.112 38.512C131.784 38.9021 131.283 39.3566 130.62 39.7892C129.296 40.6528 127.35 41.412 124.887 41.412V41.912V42.412C127.56 42.412 129.694 41.5872 131.167 40.6268C131.901 40.1474 132.478 39.6299 132.877 39.156C133.076 38.9195 133.237 38.6864 133.351 38.4675C133.46 38.2583 133.547 38.02 133.547 37.784H133.047ZM124.887 41.912V41.412C121.113 41.412 118.139 38.9338 118.139 35.384H117.639H117.139C117.139 39.6102 120.694 42.412 124.887 42.412V41.912ZM117.639 35.384H118.139C118.139 32.7031 119.206 30.2373 120.313 28.1612C120.588 27.6438 120.865 27.1542 121.126 26.6916C121.386 26.2312 121.634 25.7942 121.848 25.3919C122.06 24.9904 122.246 24.6098 122.379 24.2606C122.51 23.9164 122.603 23.5684 122.603 23.24H122.103H121.603C121.603 23.3916 121.557 23.6077 121.444 23.9049C121.333 24.1971 121.17 24.5354 120.964 24.9236C120.759 25.3111 120.519 25.7346 120.256 26.1993C119.994 26.6616 119.712 27.1612 119.43 27.6908C118.305 29.8027 117.139 32.4489 117.139 35.384H117.639ZM122.103 23.24H122.603C122.603 22.9342 122.517 22.6107 122.271 22.3644C122.024 22.1176 121.688 22.02 121.335 22.02V22.52V23.02C121.511 23.02 121.559 23.0664 121.564 23.0716C121.57 23.0773 121.603 23.1138 121.603 23.24H122.103ZM121.335 22.52V22.02C120.393 22.02 118.671 22.7807 117.219 25.0331L117.639 25.304L118.06 25.5749C119.392 23.5073 120.838 23.02 121.335 23.02V22.52ZM117.639 25.304L117.22 25.0321C116.357 26.3627 115.491 28.1228 114.839 29.8098C114.194 31.48 113.731 33.1495 113.731 34.28H114.231H114.731C114.731 33.3465 115.133 31.824 115.772 30.1702C116.404 28.5332 117.241 26.8373 118.059 25.5759L117.639 25.304ZM114.231 34.28H113.731C113.731 34.6374 113.688 34.787 113.647 34.8487C113.642 34.8564 113.609 34.932 113.319 34.932V35.432V35.932C113.798 35.932 114.221 35.7916 114.479 35.4034C114.702 35.069 114.731 34.6426 114.731 34.28H114.231ZM113.319 35.432V34.932C112.223 34.932 111.002 34.7907 110.074 34.4574C109.11 34.111 108.683 33.6502 108.683 33.128H108.183H107.683C107.683 34.3338 108.697 35.025 109.736 35.3986C110.813 35.7853 112.16 35.932 113.319 35.932V35.432ZM108.183 33.128H108.683C108.683 32.5248 108.864 31.7187 109.162 30.7909C109.457 29.8724 109.852 28.8772 110.253 27.9071C110.651 26.9457 111.059 25.9982 111.363 25.2077C111.516 24.8107 111.648 24.4417 111.741 24.1194C111.832 23.8064 111.899 23.4994 111.899 23.24H111.399H110.899C110.899 23.3526 110.866 23.5481 110.781 23.8404C110.699 24.1233 110.579 24.4623 110.43 24.8483C110.132 25.6238 109.736 26.5423 109.329 27.5249C108.927 28.4988 108.518 29.5256 108.21 30.4851C107.905 31.4353 107.683 32.3632 107.683 33.128H108.183ZM111.399 23.24H111.899C111.899 22.8855 111.757 22.5664 111.501 22.3417C111.25 22.1221 110.922 22.02 110.583 22.02V22.52V23.02C110.725 23.02 110.805 23.0619 110.842 23.0943C110.873 23.1216 110.899 23.1625 110.899 23.24H111.399ZM110.583 22.52V22.02C110.117 22.02 109.636 22.1379 109.089 22.563C108.566 22.9686 107.99 23.6484 107.283 24.7451L107.703 25.016L108.124 25.2868C108.809 24.2236 109.312 23.6554 109.702 23.353C110.066 23.0701 110.329 23.02 110.583 23.02V22.52ZM107.703 25.016L107.282 24.7476C106.429 26.0879 105.433 27.9093 104.649 29.6596C104.257 30.5351 103.914 31.4001 103.669 32.1835C103.426 32.9584 103.267 33.6879 103.267 34.28H103.767H104.267C104.267 33.8401 104.39 33.2256 104.623 32.4825C104.853 31.7479 105.18 30.9209 105.562 30.0684C106.326 28.3627 107.298 26.5841 108.125 25.2844L107.703 25.016ZM103.767 34.28H103.267C103.267 34.6374 103.224 34.787 103.183 34.8486C103.178 34.8564 103.145 34.932 102.855 34.932V35.432V35.932C103.334 35.932 103.757 35.7916 104.015 35.4034C104.238 35.069 104.267 34.6426 104.267 34.28H103.767ZM102.855 35.432V34.932C101.759 34.932 100.474 34.7908 99.4819 34.4545C98.9848 34.286 98.5953 34.0798 98.3379 33.8465C98.0906 33.6224 97.9794 33.3893 97.9794 33.128H97.4794H96.9794C96.9794 33.7307 97.2582 34.2176 97.6664 34.5875C98.0645 34.9482 98.5959 35.21 99.1609 35.4015C100.293 35.7852 101.696 35.932 102.855 35.932V35.432ZM97.4794 33.128H97.9794C97.9794 32.3514 98.2284 31.3371 98.6348 30.1522C99.0382 28.9761 99.5772 27.6844 100.125 26.3591C100.67 25.0416 101.224 23.6929 101.64 22.4306C102.054 21.1748 102.347 19.9616 102.347 18.92H101.847H101.347C101.347 19.7984 101.095 20.8892 100.69 22.1174C100.287 23.3391 99.7484 24.6544 99.2013 25.9769C98.6575 27.2916 98.1046 28.6159 97.6889 29.8278C97.2763 31.0309 96.9794 32.1766 96.9794 33.128H97.4794ZM101.847 18.92H102.347C102.347 18.855 102.365 18.8064 102.449 18.7515C102.559 18.6806 102.786 18.604 103.191 18.604V18.104V17.604C102.685 17.604 102.24 17.6954 101.905 17.9125C101.546 18.1456 101.347 18.505 101.347 18.92H101.847ZM103.191 18.104V18.604C105.188 18.604 106.154 19.3119 106.657 19.9497C106.918 20.2802 107.072 20.6142 107.173 20.8769C107.199 20.9428 107.221 21.004 107.242 21.0612C107.261 21.1153 107.282 21.1738 107.3 21.2218C107.316 21.2647 107.342 21.3311 107.377 21.3916C107.394 21.421 107.429 21.4765 107.485 21.5299C107.541 21.5829 107.664 21.676 107.847 21.676V21.176V20.676C108.019 20.676 108.13 20.7631 108.173 20.8045C108.217 20.8463 108.239 20.8845 108.243 20.8914C108.252 20.9069 108.25 20.9073 108.235 20.8662C108.221 20.8302 108.206 20.7867 108.183 20.7238C108.162 20.664 108.136 20.5932 108.106 20.5151C107.984 20.2018 107.787 19.7678 107.442 19.3303C106.733 18.4321 105.467 17.604 103.191 17.604V18.104ZM107.847 21.176V21.676C107.971 21.676 108.064 21.6321 108.096 21.6163C108.14 21.5948 108.177 21.5704 108.204 21.552C108.258 21.5147 108.314 21.4684 108.366 21.4242C108.468 21.3365 108.611 21.2062 108.765 21.0701C109.084 20.7875 109.515 20.4186 110.046 20.0512C111.113 19.3132 112.549 18.604 114.231 18.604V18.104V17.604C112.266 17.604 110.63 18.4308 109.477 19.2288C108.898 19.6294 108.432 20.0285 108.101 20.3219C107.93 20.4738 107.81 20.5835 107.716 20.6638C107.67 20.7036 107.644 20.7233 107.633 20.731C107.627 20.7351 107.636 20.728 107.657 20.7181C107.665 20.7139 107.739 20.676 107.847 20.676V21.176ZM114.231 18.104V18.604C115.995 18.604 116.989 19.2998 117.575 19.9692C117.875 20.3115 118.075 20.6571 118.216 20.927C118.251 20.9947 118.283 21.0573 118.312 21.1155C118.339 21.1715 118.368 21.2288 118.393 21.277C118.416 21.3209 118.45 21.3819 118.489 21.4361C118.508 21.4626 118.544 21.5086 118.597 21.5523C118.644 21.5915 118.762 21.676 118.935 21.676V21.176V20.676C119.097 20.676 119.201 20.7545 119.235 20.7821C119.274 20.8142 119.294 20.8429 119.297 20.8469C119.304 20.8561 119.299 20.8511 119.278 20.811C119.259 20.7752 119.237 20.7304 119.207 20.6695C119.177 20.6107 119.143 20.5413 119.103 20.465C118.943 20.1589 118.7 19.7365 118.328 19.3107C117.569 18.4442 116.308 17.604 114.231 17.604V18.104ZM118.935 21.176V21.676C119.072 21.676 119.175 21.6196 119.192 21.6109C119.23 21.5911 119.263 21.5691 119.287 21.5528C119.335 21.5192 119.39 21.4763 119.443 21.4335C119.541 21.3552 119.709 21.214 119.869 21.0842C120.217 20.8022 120.694 20.4314 121.274 20.0617C122.442 19.3179 123.991 18.604 125.703 18.604V18.104V17.604C123.72 17.604 121.981 18.4261 120.737 19.2183C120.111 19.6166 119.601 20.0138 119.239 20.3078C119.044 20.466 118.928 20.5648 118.816 20.6545C118.765 20.6957 118.735 20.7188 118.718 20.7302C118.709 20.7364 118.715 20.7316 118.731 20.7235C118.739 20.7193 118.758 20.7099 118.784 20.7008C118.807 20.693 118.862 20.676 118.935 20.676V21.176ZM125.703 18.104V18.604C126.821 18.604 127.599 18.8942 128.092 19.3393C128.579 19.7784 128.851 20.4242 128.851 21.272H129.351H129.851C129.851 20.1998 129.499 19.2616 128.762 18.5967C128.032 17.9378 126.986 17.604 125.703 17.604V18.104Z" fill="white"/>
</g>
<defs>
<filter id="filter0_dddd_45_1053" x="0.696869" y="0.0039978" width="134.851" height="44.708" filterUnits="userSpaceOnUse" color-interpolation-filters="sRGB">
<feFlood flood-opacity="0" result="BackgroundImageFix"/>
<feColorMatrix in="SourceAlpha" type="matrix" values="0 0 0 0 0 0 0 0 0 0 0 0 0 0 0 0 0 0 127 0" result="hardAlpha"/>
<feOffset dy="2.3"/>
<feComposite in2="hardAlpha" operator="out"/>
<feColorMatrix type="matrix" values="0 0 0 0 0.243137 0 0 0 0 0.254902 0 0 0 0 0.752941 0 0 0 1 0"/>
<feBlend mode="normal" in2="BackgroundImageFix" result="effect1_dropShadow_45_1053"/>
<feColorMatrix in="SourceAlpha" type="matrix" values="0 0 0 0 0 0 0 0 0 0 0 0 0 0 0 0 0 0 127 0" result="hardAlpha"/>
<feOffset dx="1" dy="-2"/>
<feComposite in2="hardAlpha" operator="out"/>
<feColorMatrix type="matrix" values="0 0 0 0 0.243137 0 0 0 0 0.254902 0 0 0 0 0.752941 0 0 0 1 0"/>
<feBlend mode="normal" in2="effect1_dropShadow_45_1053" result="effect2_dropShadow_45_1053"/>
<feColorMatrix in="SourceAlpha" type="matrix" values="0 0 0 0 0 0 0 0 0 0 0 0 0 0 0 0 0 0 127 0" result="hardAlpha"/>
<feOffset dx="2" dy="-0.3"/>
<feComposite in2="hardAlpha" operator="out"/>
<feColorMatrix type="matrix" values="0 0 0 0 0.243137 0 0 0 0 0.254902 0 0 0 0 0.752941 0 0 0 1 0"/>
<feBlend mode="normal" in2="effect2_dropShadow_45_1053" result="effect3_dropShadow_45_1053"/>
<feColorMatrix in="SourceAlpha" type="matrix" values="0 0 0 0 0 0 0 0 0 0 0 0 0 0 0 0 0 0 127 0" result="hardAlpha"/>
<feOffset dx="-2"/>
<feComposite in2="hardAlpha" operator="out"/>
<feColorMatrix type="matrix" values="0 0 0 0 0.243137 0 0 0 0 0.254902 0 0 0 0 0.752941 0 0 0 1 0"/>
<feBlend mode="normal" in2="effect3_dropShadow_45_1053" result="effect4_dropShadow_45_1053"/>
<feBlend mode="normal" in="SourceGraphic" in2="effect4_dropShadow_45_1053" result="shape"/>
</filter>
</defs>
</svg>
