<svg width="274" height="109" viewBox="0 0 274 109" fill="none" xmlns="http://www.w3.org/2000/svg">
<rect x="0.17218" y="0.561523" width="273.801" height="107.801" rx="20" fill="white"/>
<circle cx="44.5" cy="52.5" r="37" fill="#FDE5B0" stroke="#FDE5B0"/>
<path d="M63.6691 44.6627C63.6691 43.5526 62.9277 42.4426 62.1864 41.8876L50.5095 34.6724C50.0293 34.4 49.4864 34.2567 48.934 34.2567C48.3816 34.2567 47.8387 34.4 47.3585 34.6724L28.2677 45.7727C27.341 46.1427 26.5996 47.2527 26.5996 48.3627V60.573C26.5996 61.498 27.341 62.7931 28.0824 63.3481L39.7593 70.5632C40.2395 70.8357 40.7824 70.979 41.3347 70.979C41.8871 70.979 42.43 70.8357 42.9102 70.5632L62.001 59.463C62.9277 58.908 63.6691 57.6129 63.6691 56.6879V44.6627Z" stroke="#3E41C0" stroke-width="2" stroke-linecap="round" stroke-linejoin="round"/>
<path d="M41 56.5433L63 43.5433" stroke="#3E41C0" stroke-width="2" stroke-linecap="round" stroke-linejoin="round"/>
<path d="M57 61.5433V47.5433" stroke="#3E41C0" stroke-width="2" stroke-linecap="round" stroke-linejoin="round"/>
<path d="M49 66.5433V52.5433" stroke="#3E41C0" stroke-width="2" stroke-linecap="round" stroke-linejoin="round"/>
<path d="M41 70.5433V56.5433" stroke="#3E41C0" stroke-width="2" stroke-linecap="round" stroke-linejoin="round"/>
<path d="M41.3965 56.4499L28 47.5433" stroke="#3E41C0" stroke-width="2" stroke-linecap="round" stroke-linejoin="round"/>
<path d="M136.989 41.768H133.581V45.224H132.222V41.768H128.829V40.536H132.222V37.064H133.581V40.536H136.989V41.768ZM139.175 45.832C140.53 44.744 141.591 43.8533 142.359 43.16C143.127 42.456 143.773 41.7253 144.295 40.968C144.829 40.2 145.095 39.448 145.095 38.712C145.095 38.0187 144.925 37.4747 144.583 37.08C144.253 36.6747 143.714 36.472 142.967 36.472C142.242 36.472 141.677 36.7013 141.271 37.16C140.877 37.608 140.663 38.2107 140.631 38.968H139.223C139.266 37.7733 139.629 36.8507 140.311 36.2C140.994 35.5493 141.874 35.224 142.951 35.224C144.05 35.224 144.919 35.528 145.559 36.136C146.21 36.744 146.535 37.5813 146.535 38.648C146.535 39.5333 146.269 40.3973 145.735 41.24C145.213 42.072 144.615 42.808 143.943 43.448C143.271 44.0773 142.413 44.8133 141.367 45.656H146.871V46.872H139.175V45.832Z" fill="black"/>
<path d="M119.237 62.83H114.981L114.197 65H112.853L116.381 55.298H117.851L121.365 65H120.021L119.237 62.83ZM118.873 61.794L117.109 56.866L115.345 61.794H118.873ZM126.066 57.202C126.729 57.202 127.308 57.3467 127.802 57.636C128.306 57.9253 128.68 58.2893 128.922 58.728V57.328H130.21V65.168C130.21 65.868 130.061 66.4887 129.762 67.03C129.464 67.5807 129.034 68.01 128.474 68.318C127.924 68.626 127.28 68.78 126.542 68.78C125.534 68.78 124.694 68.542 124.022 68.066C123.35 67.59 122.954 66.9413 122.832 66.12H124.092C124.232 66.5867 124.522 66.96 124.96 67.24C125.399 67.5293 125.926 67.674 126.542 67.674C127.242 67.674 127.812 67.4547 128.25 67.016C128.698 66.5773 128.922 65.9613 128.922 65.168V63.558C128.67 64.006 128.297 64.3793 127.802 64.678C127.308 64.9767 126.729 65.126 126.066 65.126C125.385 65.126 124.764 64.958 124.204 64.622C123.654 64.286 123.22 63.8147 122.902 63.208C122.585 62.6013 122.426 61.9107 122.426 61.136C122.426 60.352 122.585 59.666 122.902 59.078C123.22 58.4807 123.654 58.0187 124.204 57.692C124.764 57.3653 125.385 57.202 126.066 57.202ZM128.922 61.15C128.922 60.5713 128.806 60.0673 128.572 59.638C128.339 59.2087 128.022 58.882 127.62 58.658C127.228 58.4247 126.794 58.308 126.318 58.308C125.842 58.308 125.408 58.42 125.016 58.644C124.624 58.868 124.312 59.1947 124.078 59.624C123.845 60.0533 123.728 60.5573 123.728 61.136C123.728 61.724 123.845 62.2373 124.078 62.676C124.312 63.1053 124.624 63.4367 125.016 63.67C125.408 63.894 125.842 64.006 126.318 64.006C126.794 64.006 127.228 63.894 127.62 63.67C128.022 63.4367 128.339 63.1053 128.572 62.676C128.806 62.2373 128.922 61.7287 128.922 61.15ZM135.709 65.126C134.99 65.126 134.337 64.9627 133.749 64.636C133.17 64.3093 132.713 63.8473 132.377 63.25C132.05 62.6433 131.887 61.9433 131.887 61.15C131.887 60.366 132.055 59.6753 132.391 59.078C132.736 58.4713 133.203 58.0093 133.791 57.692C134.379 57.3653 135.037 57.202 135.765 57.202C136.493 57.202 137.151 57.3653 137.739 57.692C138.327 58.0093 138.789 58.4667 139.125 59.064C139.47 59.6613 139.643 60.3567 139.643 61.15C139.643 61.9433 139.466 62.6433 139.111 63.25C138.766 63.8473 138.294 64.3093 137.697 64.636C137.1 64.9627 136.437 65.126 135.709 65.126ZM135.709 64.006C136.166 64.006 136.596 63.8987 136.997 63.684C137.398 63.4693 137.72 63.1473 137.963 62.718C138.215 62.2887 138.341 61.766 138.341 61.15C138.341 60.534 138.22 60.0113 137.977 59.582C137.734 59.1527 137.417 58.8353 137.025 58.63C136.633 58.4153 136.208 58.308 135.751 58.308C135.284 58.308 134.855 58.4153 134.463 58.63C134.08 58.8353 133.772 59.1527 133.539 59.582C133.306 60.0113 133.189 60.534 133.189 61.15C133.189 61.7753 133.301 62.3027 133.525 62.732C133.758 63.1613 134.066 63.4833 134.449 63.698C134.832 63.9033 135.252 64.006 135.709 64.006ZM144.034 65.126C143.446 65.126 142.919 65.028 142.452 64.832C141.986 64.6267 141.617 64.3467 141.346 63.992C141.076 63.628 140.926 63.2127 140.898 62.746H142.214C142.252 63.1287 142.429 63.4413 142.746 63.684C143.073 63.9267 143.498 64.048 144.02 64.048C144.506 64.048 144.888 63.9407 145.168 63.726C145.448 63.5113 145.588 63.2407 145.588 62.914C145.588 62.578 145.439 62.3307 145.14 62.172C144.842 62.004 144.38 61.8407 143.754 61.682C143.185 61.5327 142.718 61.3833 142.354 61.234C142 61.0753 141.692 60.8467 141.43 60.548C141.178 60.24 141.052 59.8387 141.052 59.344C141.052 58.952 141.169 58.5927 141.402 58.266C141.636 57.9393 141.967 57.6827 142.396 57.496C142.826 57.3 143.316 57.202 143.866 57.202C144.716 57.202 145.402 57.4167 145.924 57.846C146.447 58.2753 146.727 58.8633 146.764 59.61H145.49C145.462 59.2087 145.299 58.8867 145 58.644C144.711 58.4013 144.319 58.28 143.824 58.28C143.367 58.28 143.003 58.378 142.732 58.574C142.462 58.77 142.326 59.0267 142.326 59.344C142.326 59.596 142.406 59.806 142.564 59.974C142.732 60.1327 142.938 60.2633 143.18 60.366C143.432 60.4593 143.778 60.5667 144.216 60.688C144.767 60.8373 145.215 60.9867 145.56 61.136C145.906 61.276 146.2 61.4907 146.442 61.78C146.694 62.0693 146.825 62.4473 146.834 62.914C146.834 63.334 146.718 63.712 146.484 64.048C146.251 64.384 145.92 64.65 145.49 64.846C145.07 65.0327 144.585 65.126 144.034 65.126ZM150.187 58.378V62.9C150.187 63.2733 150.266 63.5393 150.425 63.698C150.583 63.8473 150.859 63.922 151.251 63.922H152.189V65H151.041C150.331 65 149.799 64.8367 149.445 64.51C149.09 64.1833 148.913 63.6467 148.913 62.9V58.378H147.919V57.328H148.913V55.396H150.187V57.328H152.189V58.378H150.187ZM157.078 65.126C156.36 65.126 155.706 64.9627 155.118 64.636C154.54 64.3093 154.082 63.8473 153.746 63.25C153.42 62.6433 153.256 61.9433 153.256 61.15C153.256 60.366 153.424 59.6753 153.76 59.078C154.106 58.4713 154.572 58.0093 155.16 57.692C155.748 57.3653 156.406 57.202 157.134 57.202C157.862 57.202 158.52 57.3653 159.108 57.692C159.696 58.0093 160.158 58.4667 160.494 59.064C160.84 59.6613 161.012 60.3567 161.012 61.15C161.012 61.9433 160.835 62.6433 160.48 63.25C160.135 63.8473 159.664 64.3093 159.066 64.636C158.469 64.9627 157.806 65.126 157.078 65.126ZM157.078 64.006C157.536 64.006 157.965 63.8987 158.366 63.684C158.768 63.4693 159.09 63.1473 159.332 62.718C159.584 62.2887 159.71 61.766 159.71 61.15C159.71 60.534 159.589 60.0113 159.346 59.582C159.104 59.1527 158.786 58.8353 158.394 58.63C158.002 58.4153 157.578 58.308 157.12 58.308C156.654 58.308 156.224 58.4153 155.832 58.63C155.45 58.8353 155.142 59.1527 154.908 59.582C154.675 60.0113 154.558 60.534 154.558 61.15C154.558 61.7753 154.67 62.3027 154.894 62.732C155.128 63.1613 155.436 63.4833 155.818 63.698C156.201 63.9033 156.621 64.006 157.078 64.006Z" fill="#A1A1A1"/>
<rect x="208" y="4" width="59.4017" height="99.9869" rx="22" fill="#E1E1F1"/>
<path d="M240.258 66.1543C240.258 66.7845 240.05 67.3109 239.635 67.7334C239.219 68.1559 238.7 68.3672 238.077 68.3672C237.454 68.3672 236.935 68.1559 236.52 67.7334C236.104 67.3109 235.896 66.7845 235.896 66.1543C235.896 65.5241 236.104 64.9977 236.52 64.5752C236.935 64.1527 237.454 63.9414 238.077 63.9414C238.7 63.9414 239.219 64.1527 239.635 64.5752C240.05 64.9977 240.258 65.5241 240.258 66.1543ZM240.258 55.8418C240.258 56.472 240.05 56.9984 239.635 57.4209C239.219 57.8434 238.7 58.0547 238.077 58.0547C237.454 58.0547 236.935 57.8434 236.52 57.4209C236.104 56.9984 235.896 56.472 235.896 55.8418C235.896 55.2116 236.104 54.6852 236.52 54.2627C236.935 53.8402 237.454 53.6289 238.077 53.6289C238.7 53.6289 239.219 53.8402 239.635 54.2627C240.05 54.6852 240.258 55.2116 240.258 55.8418ZM240.258 45.5293C240.258 46.1595 240.05 46.6859 239.635 47.1084C239.219 47.5309 238.7 47.7422 238.077 47.7422C237.454 47.7422 236.935 47.5309 236.52 47.1084C236.104 46.6859 235.896 46.1595 235.896 45.5293C235.896 44.8991 236.104 44.3727 236.52 43.9502C236.935 43.5277 237.454 43.3164 238.077 43.3164C238.7 43.3164 239.219 43.5277 239.635 43.9502C240.05 44.3727 240.258 44.8991 240.258 45.5293Z" fill="#5B62B3"/>
</svg>
