<svg width="40" height="40" viewBox="0 0 40 40" fill="none" xmlns="http://www.w3.org/2000/svg">
<path d="M6.6665 36.6667V6.66671C6.6665 6.40797 6.72675 6.15278 6.84246 5.92135C6.95817 5.68993 7.12618 5.48862 7.33317 5.33337C9.06413 4.03515 11.1695 3.33337 13.3332 3.33337C18.3332 3.33337 21.6665 6.66671 25.5548 6.66671C27.7771 6.66671 29.4809 6.22226 30.6665 5.33337C30.9141 5.14766 31.2086 5.03457 31.5168 5.00678C31.8251 4.97898 32.135 5.03757 32.4119 5.176C32.6887 5.31442 32.9215 5.5272 33.0843 5.79049C33.247 6.05378 33.3332 6.35719 33.3332 6.66671V23.3334C33.3332 23.5921 33.2729 23.8473 33.1572 24.0787C33.0415 24.3102 32.8735 24.5115 32.6665 24.6667C30.9355 25.9649 28.8302 26.6667 26.6665 26.6667C21.6665 26.6667 18.3332 23.3334 13.3332 23.3334C10.8734 23.3334 8.49988 24.2401 6.6665 25.88" stroke="#3E41C0" stroke-width="2" stroke-linecap="round" stroke-linejoin="round"/>
</svg>
