<svg width="43" height="43" viewBox="0 0 43 43" fill="none" xmlns="http://www.w3.org/2000/svg">
<path d="M21.5 12.5417V19.7083" stroke="#3BB61F" stroke-width="3" stroke-linecap="round" stroke-linejoin="round"/>
<path d="M14.3298 16.1304C13.3324 17.4619 12.7256 19.0449 12.5772 20.702C12.4288 22.359 12.7448 24.0246 13.4898 25.5122C14.2347 26.9998 15.3792 28.2505 16.7949 29.1242C18.2107 29.998 19.8418 30.4603 21.5054 30.4592C23.1691 30.4582 24.7996 29.9939 26.2143 29.1184C27.6289 28.2428 28.7718 26.9907 29.5149 25.5022C30.258 24.0137 30.5719 22.3477 30.4215 20.6908C30.271 19.034 29.6622 17.4517 28.6631 16.1214" stroke="#3BB61F" stroke-width="3" stroke-linecap="round" stroke-linejoin="round"/>
<path d="M21.5002 39.4167C31.3953 39.4167 39.4168 31.3951 39.4168 21.5C39.4168 11.6049 31.3953 3.58333 21.5002 3.58333C11.6051 3.58333 3.5835 11.6049 3.5835 21.5C3.5835 31.3951 11.6051 39.4167 21.5002 39.4167Z" stroke="#3BB61F" stroke-width="3" stroke-linecap="round" stroke-linejoin="round"/>
</svg>
