<svg width="50" height="50" viewBox="0 0 50 50" fill="none" xmlns="http://www.w3.org/2000/svg">
<rect width="50" height="50" rx="25" fill="white"/>
<path d="M27 17V27.54C27.7626 27.9803 28.3586 28.6599 28.6955 29.4734C29.0325 30.2869 29.0916 31.1888 28.8637 32.0394C28.6358 32.8899 28.1336 33.6415 27.435 34.1775C26.7365 34.7136 25.8805 35.0041 25 35.0041C24.1195 35.0041 23.2635 34.7136 22.565 34.1775C21.8664 33.6415 21.3642 32.8899 21.1363 32.0394C20.9084 31.1888 20.9675 30.2869 21.3045 29.4734C21.6415 28.6599 22.2374 27.9803 23 27.54V17C23 16.4696 23.2107 15.9609 23.5858 15.5858C23.9609 15.2107 24.4696 15 25 15C25.5304 15 26.0391 15.2107 26.4142 15.5858C26.7893 15.9609 27 16.4696 27 17Z" stroke="#F9724D" stroke-width="2" stroke-linecap="round" stroke-linejoin="round"/>
</svg>
