<svg width="50" height="50" viewBox="0 0 50 50" fill="none" xmlns="http://www.w3.org/2000/svg">
<rect width="50" height="50" rx="25" fill="white"/>
<rect width="24" height="24" transform="translate(13 13)" fill="white"/>
<path d="M24 19C27.0414 19.0783 30.0139 18.0875 32.4 16.2C32.5486 16.0886 32.7252 16.0207 32.9102 16.004C33.0952 15.9874 33.2811 16.0225 33.4472 16.1056C33.6133 16.1886 33.753 16.3163 33.8507 16.4743C33.9483 16.6322 34 16.8143 34 17V29C34 29.1857 33.9483 29.3678 33.8507 29.5257C33.753 29.6837 33.6133 29.8114 33.4472 29.8944C33.2811 29.9775 33.0952 30.0126 32.9102 29.996C32.7252 29.9793 32.5486 29.9114 32.4 29.8C30.0139 27.9125 27.0414 26.9217 24 27H18C17.4696 27 16.9609 26.7893 16.5858 26.4142C16.2107 26.0391 16 25.5304 16 25V21C16 20.4696 16.2107 19.9609 16.5858 19.5858C16.9609 19.2107 17.4696 19 18 19H24Z" stroke="#F21D4E" stroke-width="2" stroke-linecap="round" stroke-linejoin="round"/>
<path d="M19 27C19 29.5964 19.8421 32.1228 21.4 34.2C21.7183 34.6243 22.1921 34.9049 22.7172 34.9799C23.2423 35.0549 23.7757 34.9183 24.2 34.6C24.6243 34.2817 24.9049 33.8079 24.9799 33.2828C25.0549 32.7577 24.9183 32.2243 24.6 31.8C23.5614 30.4152 23 28.731 23 27" stroke="#F21D4E" stroke-width="2" stroke-linecap="round" stroke-linejoin="round"/>
<path d="M21 19V27" stroke="#F21D4E" stroke-width="2" stroke-linecap="round" stroke-linejoin="round"/>
</svg>
