<svg width="50" height="50" viewBox="0 0 50 50" fill="none" xmlns="http://www.w3.org/2000/svg">
<rect width="50" height="50" rx="25" fill="white"/>
<rect width="24" height="24" transform="translate(13 13)" fill="white"/>
<path d="M27 31V19C27 18.4696 26.7893 17.9609 26.4142 17.5858C26.0391 17.2107 25.5304 17 25 17H17C16.4696 17 15.9609 17.2107 15.5858 17.5858C15.2107 17.9609 15 18.4696 15 19V30C15 30.2652 15.1054 30.5196 15.2929 30.7071C15.4804 30.8946 15.7348 31 16 31H18" stroke="#3E41C0" stroke-width="2" stroke-linecap="round" stroke-linejoin="round"/>
<path d="M28 31H22" stroke="#3E41C0" stroke-width="2" stroke-linecap="round" stroke-linejoin="round"/>
<path d="M32 31H34C34.2652 31 34.5196 30.8946 34.7071 30.7071C34.8946 30.5196 35 30.2652 35 30V26.35C34.9996 26.1231 34.922 25.903 34.78 25.726L31.3 21.376C31.2065 21.2589 31.0878 21.1643 30.9528 21.0992C30.8178 21.0341 30.6699 21.0002 30.52 21H27" stroke="#3E41C0" stroke-width="2" stroke-linecap="round" stroke-linejoin="round"/>
<path d="M30 33C31.1046 33 32 32.1046 32 31C32 29.8954 31.1046 29 30 29C28.8954 29 28 29.8954 28 31C28 32.1046 28.8954 33 30 33Z" stroke="#3E41C0" stroke-width="2" stroke-linecap="round" stroke-linejoin="round"/>
<path d="M20 33C21.1046 33 22 32.1046 22 31C22 29.8954 21.1046 29 20 29C18.8954 29 18 29.8954 18 31C18 32.1046 18.8954 33 20 33Z" stroke="#3E41C0" stroke-width="2" stroke-linecap="round" stroke-linejoin="round"/>
</svg>
