<svg width="40" height="40" viewBox="0 0 40 40" fill="none" xmlns="http://www.w3.org/2000/svg">
<path d="M35.0002 20C35.9202 20 36.6752 19.2517 36.5835 18.3367C36.1993 14.5103 34.5036 10.9345 31.7841 8.21553C29.0645 5.49656 25.4883 3.80171 21.6619 3.41832C20.7452 3.32666 19.9985 4.08165 19.9985 5.00165V18.335C19.9985 18.777 20.1741 19.2009 20.4867 19.5135C20.7993 19.8261 21.2232 20.0017 21.6652 20.0017L35.0002 20Z" stroke="#3E41C0" stroke-width="2.3" stroke-linecap="round" stroke-linejoin="round"/>
<path d="M35.3499 26.4833C34.2896 28.9908 32.6312 31.2004 30.5197 32.9188C28.4081 34.6373 25.9078 35.8124 23.2373 36.3413C20.5667 36.8702 17.8072 36.7369 15.2001 35.953C12.593 35.1691 10.2176 33.7585 8.28156 31.8444C6.34555 29.9304 4.90788 27.5713 4.09425 24.9733C3.28062 22.3753 3.11579 19.6175 3.61419 16.9411C4.11258 14.2646 5.25902 11.7511 6.95327 9.62006C8.64752 7.48906 10.838 5.80554 13.3332 4.71667" stroke="#3E41C0" stroke-width="2.3" stroke-linecap="round" stroke-linejoin="round"/>
</svg>
