<svg width="85" height="85" viewBox="0 0 85 85" fill="none" xmlns="http://www.w3.org/2000/svg">
<circle cx="42.5" cy="42.5" r="42.5" fill="white"/>
<path d="M42.5 33.5417V40.7083" stroke="#F21D4E" stroke-width="3" stroke-linecap="round" stroke-linejoin="round"/>
<path d="M35.3298 37.1304C34.3324 38.4619 33.7256 40.0449 33.5772 41.702C33.4288 43.359 33.7448 45.0246 34.4898 46.5122C35.2347 47.9998 36.3792 49.2505 37.7949 50.1242C39.2107 50.998 40.8418 51.4603 42.5054 51.4592C44.1691 51.4582 45.7996 50.9939 47.2143 50.1184C48.6289 49.2428 49.7718 47.9907 50.5149 46.5022C51.258 45.0137 51.5719 43.3477 51.4215 41.6908C51.271 40.034 50.6622 38.4517 49.6631 37.1214" stroke="#F21D4E" stroke-width="3" stroke-linecap="round" stroke-linejoin="round"/>
<path d="M42.5002 60.4167C52.3953 60.4167 60.4168 52.3951 60.4168 42.5C60.4168 32.6049 52.3953 24.5833 42.5002 24.5833C32.6051 24.5833 24.5835 32.6049 24.5835 42.5C24.5835 52.3951 32.6051 60.4167 42.5002 60.4167Z" stroke="#F21D4E" stroke-width="3" stroke-linecap="round" stroke-linejoin="round"/>
</svg>
