<svg width="40" height="40" viewBox="0 0 40 40" fill="none" xmlns="http://www.w3.org/2000/svg">
<path d="M23.51 9.25499C23.9727 9.48618 24.4828 9.60654 25 9.60654C25.5172 9.60654 26.0273 9.48618 26.49 9.25499L32.5883 6.20499C32.8426 6.07792 33.1252 6.018 33.4092 6.03093C33.6931 6.04387 33.9691 6.12922 34.2108 6.27887C34.4525 6.42853 34.6518 6.63751 34.79 6.88596C34.9281 7.1344 35.0004 7.41405 35 7.69832V28.9717C34.9998 29.2811 34.9135 29.5844 34.7508 29.8475C34.588 30.1107 34.3551 30.3233 34.0783 30.4617L26.49 34.2567C26.0273 34.4879 25.5172 34.6082 25 34.6082C24.4828 34.6082 23.9727 34.4879 23.51 34.2567L16.49 30.7467C16.0273 30.5155 15.5172 30.3951 15 30.3951C14.4828 30.3951 13.9727 30.5155 13.51 30.7467L7.41167 33.7967C7.15726 33.9238 6.87454 33.9837 6.59043 33.9707C6.30632 33.9577 6.03026 33.8722 5.78853 33.7223C5.5468 33.5725 5.34744 33.3633 5.20942 33.1146C5.07139 32.8659 4.9993 32.5861 5.00001 32.3017V11.03C5.00017 10.7206 5.08648 10.4173 5.24926 10.1541C5.41204 9.89095 5.64487 9.6783 5.92167 9.53999L13.51 5.74499C13.9727 5.51379 14.4828 5.39343 15 5.39343C15.5172 5.39343 16.0273 5.51379 16.49 5.74499L23.51 9.25499Z" stroke="#3E41C0" stroke-width="2" stroke-linecap="round" stroke-linejoin="round"/>
<path d="M25 9.60669V34.6067" stroke="#3E41C0" stroke-width="2" stroke-linecap="round" stroke-linejoin="round"/>
<path d="M15 5.39331V30.3933" stroke="#3E41C0" stroke-width="2" stroke-linecap="round" stroke-linejoin="round"/>
</svg>
