<svg width="40" height="40" viewBox="0 0 40 40" fill="none" xmlns="http://www.w3.org/2000/svg">
<path d="M16.667 3.33337V28.3334" stroke="white" stroke-width="2" stroke-linecap="round" stroke-linejoin="round"/>
<path d="M11.6667 36.6667C9.89856 36.6667 8.20286 35.9643 6.95262 34.7141C5.70238 33.4638 5 31.7682 5 30C5 29.558 5.17559 29.1341 5.48816 28.8215C5.80072 28.509 6.22464 28.3334 6.66667 28.3334H33.3333C33.7754 28.3334 34.1993 28.509 34.5118 28.8215C34.8244 29.1341 35 29.558 35 30C35 31.7682 34.2976 33.4638 33.0474 34.7141C31.7971 35.9643 30.1014 36.6667 28.3333 36.6667H11.6667Z" stroke="white" stroke-width="2" stroke-linecap="round" stroke-linejoin="round"/>
<path d="M15.2655 4.10003C15.3972 3.89507 15.5722 3.72147 15.7782 3.59145C15.9842 3.46143 16.2162 3.37815 16.4579 3.34749C16.6996 3.31682 16.945 3.33951 17.177 3.41395C17.409 3.4884 17.6218 3.61279 17.8005 3.77836L34.4288 18.745C34.6841 18.9681 34.8653 19.2638 34.9482 19.5925C35.0311 19.9213 35.0117 20.2675 34.8928 20.5849C34.7738 20.9024 34.5608 21.1761 34.2823 21.3693C34.0037 21.5626 33.6728 21.6664 33.3338 21.6667H6.66714C6.36333 21.6668 6.06528 21.5838 5.8052 21.4268C5.54512 21.2698 5.33292 21.0446 5.19152 20.7757C5.05012 20.5068 4.98491 20.2044 5.00294 19.9011C5.02097 19.5979 5.12155 19.3053 5.2938 19.055L15.2655 4.10003Z" stroke="white" stroke-width="2" stroke-linecap="round" stroke-linejoin="round"/>
</svg>
