<svg width="40" height="40" viewBox="0 0 40 40" fill="none" xmlns="http://www.w3.org/2000/svg">
<path d="M16.6665 3.33334V28.3333" stroke="#3E41C0" stroke-width="2" stroke-linecap="round" stroke-linejoin="round"/>
<path d="M11.6667 36.6667C9.89856 36.6667 8.20286 35.9643 6.95262 34.7141C5.70238 33.4638 5 31.7681 5 30C5 29.558 5.17559 29.1341 5.48816 28.8215C5.80072 28.5089 6.22464 28.3333 6.66667 28.3333H33.3333C33.7754 28.3333 34.1993 28.5089 34.5118 28.8215C34.8244 29.1341 35 29.558 35 30C35 31.7681 34.2976 33.4638 33.0474 34.7141C31.7971 35.9643 30.1014 36.6667 28.3333 36.6667H11.6667Z" stroke="#3E41C0" stroke-width="2" stroke-linecap="round" stroke-linejoin="round"/>
<path d="M15.265 4.1C15.3967 3.89504 15.5717 3.72144 15.7777 3.59142C15.9837 3.4614 16.2157 3.37812 16.4574 3.34746C16.6991 3.31679 16.9445 3.33948 17.1765 3.41392C17.4085 3.48836 17.6213 3.61275 17.8 3.77833L34.4283 18.745C34.6836 18.9681 34.8648 19.2637 34.9477 19.5925C35.0306 19.9212 35.0113 20.2674 34.8923 20.5849C34.7733 20.9024 34.5603 21.176 34.2818 21.3693C34.0032 21.5626 33.6724 21.6663 33.3333 21.6667H6.66665C6.36284 21.6668 6.06479 21.5838 5.80471 21.4268C5.54464 21.2697 5.33243 21.0446 5.19103 20.7757C5.04963 20.5068 4.98442 20.2044 5.00245 19.9011C5.02048 19.5978 5.12106 19.3053 5.29332 19.055L15.265 4.1Z" stroke="#3E41C0" stroke-width="2" stroke-linecap="round" stroke-linejoin="round"/>
</svg>
