<svg width="43" height="43" viewBox="0 0 43 43" fill="none" xmlns="http://www.w3.org/2000/svg">
<path d="M10.75 39.4166C13.7185 39.4166 16.125 37.0102 16.125 34.0416C16.125 31.0731 13.7185 28.6666 10.75 28.6666C7.78147 28.6666 5.375 31.0731 5.375 34.0416C5.375 37.0102 7.78147 39.4166 10.75 39.4166Z" stroke="white" stroke-width="4" stroke-linecap="round" stroke-linejoin="round"/>
<path d="M16.125 34.0417H31.3542C33.0173 34.0417 34.6123 33.381 35.7883 32.205C36.9643 31.029 37.625 29.434 37.625 27.7709C37.625 26.1077 36.9643 24.5127 35.7883 23.3367C34.6123 22.1607 33.0173 21.5 31.3542 21.5H11.6458C9.9827 21.5 8.38769 20.8394 7.21168 19.6634C6.03568 18.4873 5.375 16.8923 5.375 15.2292C5.375 13.5661 6.03568 11.9711 7.21168 10.7951C8.38769 9.61905 9.9827 8.95837 11.6458 8.95837H26.875" stroke="white" stroke-width="4" stroke-linecap="round" stroke-linejoin="round"/>
<path d="M32.25 14.3334C35.2185 14.3334 37.625 11.9269 37.625 8.95837C37.625 5.98984 35.2185 3.58337 32.25 3.58337C29.2815 3.58337 26.875 5.98984 26.875 8.95837C26.875 11.9269 29.2815 14.3334 32.25 14.3334Z" stroke="white" stroke-width="4" stroke-linecap="round" stroke-linejoin="round"/>
</svg>
