<svg width="45" height="45" viewBox="0 0 45 45" fill="none" xmlns="http://www.w3.org/2000/svg">
<path d="M22.5 5.625V16.875" stroke="#191B40" stroke-width="2" stroke-linecap="round" stroke-linejoin="round"/>
<path d="M31.425 5.62497C32.1239 5.62011 32.8102 5.81064 33.4065 6.17507C34.0029 6.5395 34.4855 7.06334 34.8 7.68747L38.9813 16.0856C39.2399 16.6045 39.3747 17.1764 39.375 17.7562V35.625C39.375 36.6195 38.9799 37.5734 38.2766 38.2766C37.5734 38.9799 36.6196 39.375 35.625 39.375H9.375C8.38044 39.375 7.42661 38.9799 6.72335 38.2766C6.02009 37.5734 5.625 36.6195 5.625 35.625V17.76C5.62504 17.1781 5.76049 16.6042 6.02062 16.0837L10.2187 7.68747C10.5318 7.0662 11.0115 6.54426 11.6042 6.18002C12.197 5.81578 12.8793 5.6236 13.575 5.62497H31.425Z" stroke="#191B40" stroke-width="2" stroke-linecap="round" stroke-linejoin="round"/>
<path d="M5.72656 16.8994H39.2759" stroke="#191B40" stroke-width="2" stroke-linecap="round" stroke-linejoin="round"/>
</svg>
