<svg width="45" height="45" viewBox="0 0 45 45" fill="none" xmlns="http://www.w3.org/2000/svg">
<path d="M41.25 14.4374C41.25 13.3124 40.5 12.1874 39.75 11.6249L27.9375 4.31244C27.4517 4.0363 26.9025 3.89111 26.3438 3.89111C25.785 3.89111 25.2358 4.0363 24.75 4.31244L5.4375 15.5624C4.5 15.9374 3.75 17.0624 3.75 18.1874V30.5624C3.75 31.4999 4.5 32.8124 5.25 33.3749L17.0625 40.6874C17.5483 40.9636 18.0975 41.1088 18.6562 41.1088C19.215 41.1088 19.7642 40.9636 20.25 40.6874L39.5625 29.4374C40.5 28.8749 41.25 27.5624 41.25 26.6249V14.4374Z" stroke="#191B40" stroke-opacity="0.96" stroke-width="2" stroke-linecap="round" stroke-linejoin="round"/>
<path d="M18.75 41.0625V26.25L3.9375 17.0625" stroke="#191B40" stroke-opacity="0.96" stroke-width="2" stroke-linecap="round" stroke-linejoin="round"/>
<path d="M18.75 26.25L41.0625 13.3125" stroke="#191B40" stroke-opacity="0.96" stroke-width="2" stroke-linecap="round" stroke-linejoin="round"/>
<path d="M26.25 37.125V21.9375" stroke="#191B40" stroke-opacity="0.96" stroke-width="2" stroke-linecap="round" stroke-linejoin="round"/>
<path d="M33.75 32.8125V17.625" stroke="#191B40" stroke-opacity="0.96" stroke-width="2" stroke-linecap="round" stroke-linejoin="round"/>
</svg>
