<svg width="45" height="45" viewBox="0 0 45 45" fill="none" xmlns="http://www.w3.org/2000/svg">
<path d="M26.25 7.5V27.2625C27.6798 28.088 28.7973 29.3622 29.4291 30.8876C30.0609 32.4129 30.1718 34.1041 29.7444 35.6988C29.3171 37.2936 28.3755 38.7028 27.0657 39.7078C25.7559 40.7129 24.151 41.2577 22.5 41.2577C20.849 41.2577 19.2441 40.7129 17.9343 39.7078C16.6245 38.7028 15.6829 37.2936 15.2556 35.6988C14.8282 34.1041 14.9391 32.4129 15.5709 30.8876C16.2027 29.3622 17.3202 28.088 18.75 27.2625V7.5C18.75 6.50544 19.1451 5.55161 19.8484 4.84835C20.5516 4.14509 21.5054 3.75 22.5 3.75C23.4946 3.75 24.4484 4.14509 25.1517 4.84835C25.8549 5.55161 26.25 6.50544 26.25 7.5Z" stroke="#191B40" stroke-width="2" stroke-linecap="round" stroke-linejoin="round"/>
<line x1="18" y1="18.5" x2="22" y2="18.5" stroke="#191B40"/>
<line x1="18" y1="18.5" x2="22" y2="18.5" stroke="#191B40"/>
<line x1="18" y1="18.5" x2="22" y2="18.5" stroke="#191B40"/>
<line x1="18" y1="18.5" x2="22" y2="18.5" stroke="#191B40"/>
<line x1="19" y1="15.5" x2="23" y2="15.5" stroke="#191B40"/>
<line x1="19" y1="15.5" x2="23" y2="15.5" stroke="#191B40"/>
<line x1="19" y1="15.5" x2="23" y2="15.5" stroke="#191B40"/>
<line x1="19" y1="15.5" x2="23" y2="15.5" stroke="#191B40"/>
<line x1="19" y1="12.5" x2="24" y2="12.5" stroke="#191B40"/>
<line x1="19" y1="12.5" x2="24" y2="12.5" stroke="#191B40"/>
<line x1="19" y1="12.5" x2="24" y2="12.5" stroke="#191B40"/>
<line x1="19" y1="12.5" x2="24" y2="12.5" stroke="#191B40"/>
</svg>
